if (_typeface_js && _typeface_js.loadFace) _typeface_js.loadFace({"glyphs":{"S":{"x_min":13.890625,"x_max":615.328125,"ha":761,"o":"m 615 177 q 598 109 615 136 q 553 58 586 91 q 502 13 520 25 q 431 -8 468 -8 l 201 -8 q 129 13 163 -8 q 43 101 88 38 q 13 155 27 123 l 91 177 l 101 161 q 141 111 115 137 q 186 75 168 84 q 205 70 191 70 l 426 70 q 443 75 436 70 q 488 110 461 83 q 529 161 516 137 q 533 179 533 169 l 533 263 q 521 304 533 286 q 490 329 509 323 l 106 433 q 44 481 68 444 q 20 563 20 518 l 20 645 q 37 713 20 687 q 82 766 50 732 q 133 811 115 800 q 204 833 168 833 l 413 833 q 484 811 450 833 q 570 723 525 786 q 601 669 590 697 l 522 645 l 512 663 q 473 713 500 687 q 427 750 447 740 q 409 754 420 754 l 211 754 q 193 750 200 754 q 147 714 175 741 q 106 663 119 687 q 101 645 101 652 l 101 569 q 113 530 101 548 q 144 506 126 512 l 526 401 q 591 353 566 390 q 615 272 615 316 l 615 177 "},"¦":{"x_min":0,"x_max":0,"ha":726},"/":{"x_min":11.109375,"x_max":537.546875,"ha":586,"o":"m 537 838 l 100 0 l 11 0 l 450 838 l 537 838 "},"y":{"x_min":-20.828125,"x_max":472.265625,"ha":583,"o":"m 395 598 l 472 598 l 206 -237 l 125 -237 l 205 0 l 173 0 l -20 598 l 59 598 l 223 76 l 231 76 l 395 598 "},"≈":{"x_min":0,"x_max":0,"ha":695},"Ž":{"x_min":0,"x_max":0,"ha":697},"Á":{"x_min":-34.71875,"x_max":648.65625,"ha":753,"o":"m 434 1108 l 262 923 l 184 948 l 333 1108 l 434 1108 m 562 0 l 500 193 l 113 193 l 50 0 l -34 0 l 244 837 l 369 836 l 648 0 l 562 0 m 138 270 l 475 270 l 315 754 l 297 754 l 138 270 "},"g":{"x_min":27.78125,"x_max":520.875,"ha":688,"o":"m 520 597 l 511 497 l 511 -73 q 491 -147 511 -118 q 429 -213 458 -193 q 343 -240 394 -240 l 201 -240 q 116 -213 151 -240 q 55 -145 93 -197 q 47 -134 52 -141 q 40 -122 43 -127 q 36 -115 37 -118 l 106 -91 l 108 -94 q 136 -131 115 -109 q 173 -162 156 -152 q 197 -168 183 -168 l 341 -168 q 366 -162 356 -168 q 433 -94 409 -137 q 436 -70 436 -88 l 436 72 q 381 22 406 41 q 312 -6 341 -6 l 195 -6 q 109 19 144 -6 q 47 86 80 40 q 27 159 27 115 l 27 437 q 47 511 27 481 q 109 577 80 556 q 195 604 144 604 l 312 604 q 381 575 341 604 q 437 523 408 555 l 445 597 l 520 597 m 437 159 l 437 437 l 433 443 q 384 491 416 465 q 329 527 351 516 q 308 531 320 531 l 197 531 q 172 526 181 531 q 105 458 129 501 q 101 434 101 450 l 101 162 q 105 138 101 147 q 172 70 129 95 q 197 65 181 65 l 308 65 q 329 69 320 65 q 384 106 351 80 q 433 154 416 131 l 437 159 "},"²":{"x_min":2.78125,"x_max":348.984375,"ha":421,"o":"m 348 697 q 270 608 354 633 l 106 556 q 76 511 76 541 l 76 494 l 345 494 l 345 429 l 9 429 l 9 516 q 90 619 9 595 l 243 666 q 252 671 245 668 q 262 676 259 675 q 270 681 265 677 q 277 688 275 684 q 280 696 279 691 q 281 707 281 701 l 281 715 q 279 727 281 722 q 225 770 269 745 q 202 775 216 775 l 140 775 q 122 772 126 775 q 47 719 115 768 l 2 763 q 77 820 76 819 q 143 840 109 840 l 205 840 q 275 816 244 840 q 329 769 316 784 q 347 718 345 748 l 348 697 "},"–":{"x_min":27.78125,"x_max":283.359375,"ha":436,"o":"m 283 308 l 27 308 l 27 379 l 283 379 l 283 308 "},"ë":{"x_min":27.78125,"x_max":504.203125,"ha":657,"o":"m 430 138 l 431 141 l 502 116 q 484 86 501 112 q 423 19 450 38 q 338 -6 388 -6 l 197 -6 q 111 19 145 -6 q 48 86 81 40 q 27 159 27 116 l 27 437 q 48 511 27 480 q 111 577 81 556 q 197 604 145 604 l 336 604 q 422 577 387 604 q 484 511 451 556 q 504 437 504 481 l 504 272 l 102 272 l 102 162 q 106 138 102 147 q 173 70 130 95 q 197 65 183 65 l 341 65 q 366 70 356 65 q 430 138 405 93 m 106 458 q 102 434 102 450 l 102 344 l 429 344 l 429 434 q 426 458 429 452 q 359 526 402 501 q 334 531 350 531 l 197 531 q 173 526 183 531 q 106 458 130 501 m 405 752 l 319 752 l 319 841 l 405 841 l 405 752 m 202 752 l 116 752 l 116 841 l 202 841 l 202 752 "},"ƒ":{"x_min":-81.953125,"x_max":355.578125,"ha":425,"o":"m 355 768 l 268 768 q 238 763 245 768 q 176 697 200 741 q 173 672 173 691 l 173 597 l 277 597 l 277 525 l 173 525 l 173 0 l 173 -73 q 152 -147 173 -115 q 90 -213 119 -193 q 5 -238 56 -238 l -81 -238 l -81 -166 l 4 -166 q 29 -162 22 -166 q 64 -132 45 -152 q 93 -94 83 -112 q 97 -70 97 -86 l 97 525 l 0 525 l 0 597 l 97 597 l 98 597 l 98 675 q 118 748 98 719 q 180 815 151 794 q 266 840 213 840 l 355 840 l 355 768 "},"Î":{"x_min":-126.046875,"x_max":287.875,"ha":319,"o":"m 122 0 l 40 0 l 40 833 l 122 833 l 122 0 m 287 945 l 285 944 l 187 944 l 103 1036 l 60 1036 l -24 944 l -123 944 l -126 945 l 32 1109 l 129 1109 l 287 945 "},"e":{"x_min":27.78125,"x_max":504.203125,"ha":657,"o":"m 430 138 l 431 141 l 502 116 q 484 86 501 112 q 423 19 450 38 q 338 -6 388 -6 l 197 -6 q 111 19 145 -6 q 48 86 81 40 q 27 159 27 116 l 27 437 q 48 511 27 480 q 111 577 81 556 q 197 604 145 604 l 336 604 q 422 577 387 604 q 484 511 451 556 q 504 437 504 481 l 504 272 l 102 272 l 102 162 q 106 138 102 147 q 173 70 130 95 q 197 65 183 65 l 341 65 q 366 70 356 65 q 430 138 405 93 m 106 458 q 102 434 102 450 l 102 344 l 429 344 l 429 434 q 426 458 429 452 q 359 526 402 501 q 334 531 350 531 l 197 531 q 173 526 183 531 q 106 458 130 501 "},"Ã":{"x_min":-34.71875,"x_max":648.65625,"ha":753,"o":"m 562 0 l 500 193 l 113 193 l 50 0 l -34 0 l 244 836 l 369 836 l 648 0 l 562 0 m 138 270 l 475 270 l 315 754 l 297 754 l 138 270 m 528 947 l 457 930 q 392 965 443 972 l 290 940 q 197 952 242 928 q 139 1025 153 976 l 210 1041 q 275 1007 224 1000 l 376 1032 q 469 1020 425 1044 q 528 947 514 996 "},"J":{"x_min":-13.890625,"x_max":465.3125,"ha":632,"o":"m 465 180 q 447 112 465 140 q 403 60 434 93 q 354 16 372 27 q 281 -5 319 -5 l 173 -5 q 101 16 136 -5 q 16 104 63 40 q -13 158 -2 130 l 63 180 l 73 163 q 113 113 87 138 q 156 77 138 87 q 177 73 162 73 l 275 73 q 291 77 286 73 q 337 113 309 86 q 377 163 365 140 q 383 181 383 175 l 383 838 l 465 838 l 465 180 "},"»":{"x_min":55.5625,"x_max":561.15625,"ha":756,"o":"m 561 343 l 375 143 l 293 166 l 461 343 l 461 373 l 293 548 l 375 573 l 561 372 l 561 343 m 323 343 l 137 143 l 55 166 l 223 343 l 223 373 l 55 548 l 137 573 l 323 372 l 323 343 "},"©":{"x_min":27.78125,"x_max":736.171875,"ha":889,"o":"m 736 184 q 718 118 736 145 q 673 66 705 100 q 623 22 641 33 q 551 0 588 0 l 209 0 q 138 22 173 0 q 88 66 120 33 q 44 118 56 100 q 27 184 27 144 l 27 655 q 44 722 27 695 q 88 775 56 741 q 138 820 120 809 q 209 843 173 843 l 551 843 q 623 820 588 843 q 673 775 641 809 q 718 722 705 741 q 736 655 736 694 l 736 184 m 659 652 q 654 673 659 662 q 611 725 641 695 q 562 763 580 755 q 544 768 555 768 l 216 768 q 198 763 205 768 q 150 726 180 755 q 108 673 120 697 q 104 652 104 665 l 104 187 q 108 169 104 177 q 150 115 120 145 q 198 77 180 86 q 216 73 204 73 l 544 73 q 562 77 555 73 q 611 115 580 86 q 654 169 641 145 q 658 187 658 177 l 659 652 m 590 288 q 516 216 552 243 q 448 187 476 187 l 356 187 q 273 213 308 187 q 239 245 259 223 q 212 279 219 268 q 191 351 191 311 l 191 505 q 212 577 191 547 q 239 611 219 588 q 273 643 259 633 q 356 668 306 668 l 448 668 q 516 640 477 668 q 588 569 551 613 l 516 552 q 463 593 487 580 q 445 595 459 595 l 358 595 q 334 591 341 595 q 298 562 318 581 q 269 525 279 543 q 265 502 265 516 l 265 354 q 269 330 265 338 q 298 293 279 312 q 334 263 318 273 q 358 259 341 259 l 445 259 q 463 262 459 259 q 516 305 479 270 l 590 288 "},"˘":{"x_min":27.78125,"x_max":366.703125,"ha":519,"o":"m 366 894 q 360 869 363 886 q 352 840 356 852 q 341 818 348 827 q 281 761 318 786 q 216 741 251 741 l 179 741 q 113 761 144 741 q 51 819 75 788 q 40 841 44 829 q 34 869 37 852 q 27 894 30 886 l 87 894 q 93 872 90 877 q 155 807 116 829 q 176 802 163 802 l 219 802 q 240 807 231 802 q 302 872 279 829 q 306 894 302 873 l 366 894 "},"≥":{"x_min":20.828125,"x_max":500.046875,"ha":629,"o":"m 500 355 l 22 81 l 22 169 l 384 375 l 384 394 l 20 600 l 20 687 l 500 415 l 500 355 "},"ò":{"x_min":20.828125,"x_max":495.875,"ha":649,"o":"m 495 159 q 476 86 495 115 q 413 19 443 40 q 327 -6 379 -6 l 188 -6 q 102 19 137 -6 q 40 86 73 40 q 20 159 20 115 l 20 437 q 40 511 20 481 q 102 577 73 556 q 188 604 137 604 l 327 604 q 413 577 379 604 q 476 511 443 556 q 495 437 495 481 l 495 159 m 420 162 l 420 434 q 418 458 420 452 q 351 526 394 501 q 326 531 341 531 l 190 531 q 165 526 175 531 q 98 458 122 501 q 94 434 94 450 l 94 162 q 98 138 94 147 q 165 70 122 95 q 190 65 175 65 l 326 65 q 351 70 341 65 q 418 138 394 95 q 420 162 420 144 m 358 745 l 279 720 l 104 909 l 206 909 l 358 745 "},"^":{"x_min":76.390625,"x_max":490.3125,"ha":589,"o":"m 490 745 l 487 744 l 390 744 l 305 836 l 262 836 l 177 744 l 79 744 l 76 745 l 234 909 l 331 909 l 490 745 "},"«":{"x_min":55.5625,"x_max":561.15625,"ha":756,"o":"m 561 166 l 479 143 l 293 343 l 293 372 l 479 573 l 561 548 l 393 373 l 393 343 l 561 166 m 323 166 l 241 143 l 55 343 l 55 372 l 241 573 l 323 548 l 155 373 l 155 343 l 323 166 "},"D":{"x_min":40.28125,"x_max":588.9375,"ha":756,"o":"m 588 184 q 572 118 588 144 q 527 66 559 100 q 477 22 495 33 q 406 0 443 0 l 40 0 l 40 836 l 406 836 q 477 815 445 836 q 527 770 495 804 q 572 716 559 736 q 588 650 588 690 l 588 184 m 509 647 q 505 668 509 659 q 464 718 493 690 q 418 754 436 745 q 400 758 411 758 l 119 758 l 119 79 l 400 79 q 418 83 411 79 q 464 119 436 91 q 505 169 493 147 q 509 187 509 177 l 509 647 "},"ł":{"x_min":0,"x_max":0,"ha":374},"ÿ":{"x_min":0,"x_max":0,"ha":582},"Ł":{"x_min":0,"x_max":0,"ha":640},"í":{"x_min":16.453125,"x_max":270.640625,"ha":286,"o":"m 115 0 l 40 0 l 40 597 l 115 597 l 115 0 m 270 909 l 95 720 l 16 745 l 167 909 l 270 909 "},"ˆ":{"x_min":56.953125,"x_max":470.875,"ha":589,"o":"m 470 745 l 468 744 l 370 744 l 286 836 l 243 836 l 158 744 l 59 744 l 56 745 l 215 909 l 312 909 l 470 745 "},"w":{"x_min":-20.828125,"x_max":818.125,"ha":922,"o":"m 818 597 l 650 0 l 545 0 l 398 509 l 256 0 l 152 0 l -20 597 l 59 597 l 201 80 l 209 80 l 345 597 l 452 597 l 594 80 l 602 80 l 738 597 l 818 597 "},"$":{"x_min":-13.890625,"x_max":587.546875,"ha":751,"o":"m 587 177 q 572 109 587 133 q 527 58 559 91 q 476 13 494 25 q 405 -8 441 -8 l 325 -8 l 325 -130 l 251 -130 l 251 -8 l 173 -8 q 101 13 136 -8 q 16 101 63 37 q -13 155 -2 127 l 65 177 l 75 161 q 115 111 88 137 q 159 75 141 84 q 177 70 165 70 l 251 70 l 251 386 l 80 433 q 18 481 41 444 q -5 563 -5 518 l -5 645 q 11 713 -5 687 q 55 766 23 733 q 105 811 87 800 q 176 833 140 833 l 251 833 l 251 950 l 325 950 l 325 833 l 386 833 q 456 811 422 833 q 544 723 498 784 q 575 669 563 697 l 495 645 l 486 663 q 447 713 473 687 q 401 750 420 740 q 381 754 394 754 l 325 754 l 325 450 l 500 401 q 563 353 540 390 q 587 272 587 316 l 587 177 m 251 469 l 251 754 l 183 754 q 166 750 172 754 q 120 714 148 741 q 80 663 93 687 q 75 645 75 652 l 75 569 q 86 530 75 548 q 116 506 98 512 l 251 469 m 506 179 l 506 263 q 494 304 506 286 q 462 329 481 323 l 325 366 l 325 70 l 398 70 q 416 75 411 70 q 462 110 434 83 q 502 161 490 137 q 506 179 506 169 "},"∫":{"x_min":0,"x_max":0,"ha":695},"\\":{"x_min":2.78125,"x_max":529.203125,"ha":586,"o":"m 529 0 l 440 0 l 2 838 l 90 838 l 529 0 "},"Ì":{"x_min":-71.828125,"x_max":182.359375,"ha":319,"o":"m 122 0 l 40 0 l 40 833 l 122 833 l 122 0 m 182 945 l 103 920 l -71 1109 l 30 1109 l 182 945 "},"Ç":{"x_min":40.28125,"x_max":595.875,"ha":732,"o":"m 595 155 q 565 101 584 127 q 479 13 519 38 q 408 -8 444 -8 l 225 -8 q 152 13 187 -8 q 102 58 134 25 q 58 109 70 91 q 40 176 40 137 l 40 648 q 58 715 40 687 q 102 768 70 734 q 152 812 134 801 q 223 834 187 834 l 408 834 q 479 812 444 834 q 565 725 519 787 q 595 670 584 698 l 516 647 l 506 665 q 468 715 494 688 q 423 751 441 741 q 404 755 416 755 l 230 755 q 212 751 219 755 q 166 716 194 743 q 126 665 138 688 q 122 612 122 657 l 122 179 q 126 161 122 169 q 166 110 138 137 q 212 75 194 83 q 230 70 219 70 l 404 70 q 423 75 416 70 q 467 110 441 84 q 506 161 493 136 q 516 177 511 165 l 595 155 m 375 -90 l 304 -244 l 219 -244 l 301 -63 l 375 -90 "},"’":{"x_min":73.609375,"x_max":155.5625,"ha":315,"o":"m 155 718 l 147 641 l 73 641 l 83 736 l 83 909 l 155 909 l 155 718 "},"-":{"x_min":27.78125,"x_max":479.203125,"ha":632,"o":"m 479 308 l 27 308 l 27 379 l 479 379 l 479 308 "},"Q":{"x_min":40.28125,"x_max":629.21875,"ha":792,"o":"m 629 176 q 611 108 629 136 q 566 56 598 90 q 516 12 534 23 q 445 -9 481 -9 l 436 -9 l 488 -134 l 405 -134 l 355 -9 l 225 -9 q 152 12 187 -9 q 102 56 134 23 q 58 108 70 90 q 40 176 40 136 l 40 645 q 58 713 40 686 q 102 766 70 733 q 152 811 134 800 q 225 832 184 832 l 445 832 q 516 811 484 832 q 566 766 534 800 q 611 713 598 733 q 629 645 629 686 l 629 176 m 547 177 l 547 644 q 543 663 547 655 q 502 714 530 687 q 456 750 475 741 q 438 752 452 752 l 230 752 q 212 750 216 752 q 166 714 194 741 q 126 663 138 687 q 122 644 122 655 l 122 177 q 127 159 122 170 q 167 109 140 136 q 212 73 194 81 q 231 69 219 69 l 322 69 l 306 108 l 379 133 l 405 69 l 438 69 q 456 73 450 69 q 502 109 475 81 q 543 159 530 136 q 547 177 547 168 "},"M":{"x_min":40.28125,"x_max":725.0625,"ha":903,"o":"m 725 0 l 647 0 l 647 747 l 408 223 l 355 223 l 119 747 l 119 0 l 40 0 l 40 833 l 156 833 l 383 345 l 611 833 l 725 833 l 725 0 "},"C":{"x_min":40.28125,"x_max":595.875,"ha":732,"o":"m 595 155 q 565 101 584 127 q 479 13 519 38 q 408 -8 444 -8 l 225 -8 q 152 13 187 -8 q 102 58 134 25 q 58 109 70 91 q 40 176 40 137 l 40 648 q 58 715 40 687 q 102 768 70 734 q 152 812 134 801 q 223 834 187 834 l 408 834 q 479 812 444 834 q 565 725 519 787 q 595 670 584 698 l 516 647 l 506 665 q 468 715 494 688 q 423 751 441 741 q 404 755 416 755 l 230 755 q 212 751 219 755 q 166 716 194 743 q 126 665 138 688 q 122 612 122 657 l 122 179 q 126 161 122 169 q 166 110 138 137 q 212 75 194 83 q 230 70 219 70 l 404 70 q 423 75 416 70 q 467 110 441 84 q 506 161 493 136 q 516 177 511 165 l 595 155 "},"œ":{"x_min":13.890625,"x_max":916.734375,"ha":1056,"o":"m 916 279 l 502 279 l 502 166 l 502 156 q 505 145 502 151 q 572 77 529 102 q 597 72 581 72 l 754 72 q 779 77 769 72 q 817 114 793 84 q 843 145 841 144 l 845 148 l 915 123 q 897 93 913 119 q 836 26 862 45 q 751 0 801 0 l 595 0 q 509 26 544 0 q 465 70 488 43 q 420 26 441 43 q 334 0 386 0 l 181 0 q 95 26 130 0 q 33 93 66 47 q 13 166 13 122 l 13 444 q 33 518 13 488 q 95 584 66 563 q 181 609 129 609 l 334 609 q 420 584 387 609 q 465 540 441 568 q 509 584 488 568 q 595 611 544 611 l 748 611 q 834 584 800 611 q 897 518 863 563 q 916 444 916 488 l 916 279 m 841 351 l 841 441 q 838 465 841 459 q 772 533 815 508 q 747 537 765 537 l 597 537 q 572 533 579 537 q 505 465 529 508 q 502 454 502 459 l 502 444 l 502 351 l 841 351 m 427 169 l 427 441 q 425 465 427 459 q 358 533 401 508 q 333 537 351 537 l 183 537 q 158 533 165 537 q 91 465 115 508 q 88 441 88 459 l 88 169 q 91 145 88 151 q 158 77 115 102 q 183 72 168 72 l 333 72 q 358 77 348 72 q 425 145 401 102 q 427 169 427 151 "},"!":{"x_min":83.34375,"x_max":191.6875,"ha":283,"o":"m 176 245 l 101 245 l 101 843 l 176 843 l 176 245 m 191 0 l 83 0 l 83 108 l 191 108 l 191 0 "},"ç":{"x_min":27.78125,"x_max":501.421875,"ha":640,"o":"m 501 116 q 483 86 500 112 q 422 19 448 38 q 337 -6 387 -6 l 195 -6 q 109 19 144 -6 q 47 86 80 40 q 27 159 27 115 l 27 437 q 47 511 27 481 q 109 577 80 556 q 195 604 144 604 l 333 604 q 418 577 383 604 q 479 509 441 561 q 486 498 481 505 q 494 486 491 491 q 498 479 497 481 l 427 455 l 426 458 q 398 495 419 473 q 361 526 377 516 q 336 531 351 531 l 197 531 q 172 526 181 531 q 105 458 129 501 q 101 434 101 450 l 101 162 q 105 138 101 147 q 172 70 129 95 q 197 65 181 65 l 340 65 q 365 70 355 65 q 402 102 381 80 q 429 138 422 123 l 430 141 l 501 116 m 330 -90 l 259 -244 l 174 -244 l 256 -63 l 330 -90 "},"È":{"x_min":40.28125,"x_max":518.09375,"ha":696,"o":"m 518 0 l 40 0 l 40 833 l 518 833 l 518 754 l 120 754 l 120 455 l 518 455 l 518 376 l 120 376 l 120 79 l 518 79 l 518 0 m 398 945 l 319 920 l 144 1109 l 246 1109 l 398 945 "},"ﬁ":{"x_min":0,"x_max":0,"ha":668},"{":{"x_min":27.78125,"x_max":280.578125,"ha":475,"o":"m 280 -5 l 222 -63 l 101 55 q 45 119 65 91 q 27 186 27 147 l 27 654 q 45 720 27 693 q 101 786 68 752 l 222 905 l 280 847 l 163 733 q 115 672 134 707 q 109 651 109 661 l 109 188 q 115 169 109 180 q 163 106 136 131 l 280 -5 "},"X":{"x_min":27.78125,"x_max":579.21875,"ha":689,"o":"m 579 834 l 347 416 l 577 0 l 490 0 l 304 338 l 116 0 l 29 0 l 259 416 l 27 834 l 116 834 l 304 494 l 490 834 l 579 834 "},"ô":{"x_min":20.828125,"x_max":495.875,"ha":649,"o":"m 495 159 q 476 86 495 115 q 413 19 443 40 q 327 -6 379 -6 l 188 -6 q 102 19 137 -6 q 40 86 73 40 q 20 159 20 115 l 20 437 q 40 511 20 481 q 102 577 73 556 q 188 604 137 604 l 327 604 q 413 577 379 604 q 476 511 443 556 q 495 437 495 481 l 495 159 m 420 162 l 420 434 q 418 458 420 452 q 351 526 394 501 q 326 531 341 531 l 190 531 q 165 526 175 531 q 98 458 122 501 q 94 434 94 450 l 94 162 q 98 138 94 147 q 165 70 122 95 q 190 65 175 65 l 326 65 q 351 70 341 65 q 418 138 394 95 q 420 162 420 144 m 469 745 l 467 744 l 369 744 l 285 836 l 242 836 l 157 744 l 58 744 l 55 745 l 214 909 l 311 909 l 469 745 "},"¼":{"x_min":63.890625,"x_max":752.84375,"ha":915,"o":"m 676 838 l 237 0 l 152 0 l 591 838 l 676 838 m 281 429 l 63 429 l 63 486 l 145 486 l 145 782 l 63 782 l 63 840 l 202 840 l 202 486 l 281 486 l 281 429 m 752 101 l 684 101 l 684 1 l 627 1 l 627 101 l 422 101 l 422 159 l 627 412 l 684 412 l 684 159 l 752 159 l 752 101 m 627 159 l 627 322 l 495 159 l 627 159 "},"#":{"x_min":6.9375,"x_max":584.765625,"ha":728,"o":"m 584 561 l 572 488 l 448 488 l 420 330 l 544 330 l 531 258 l 408 258 l 381 109 l 309 109 l 336 258 l 202 258 l 176 109 l 104 109 l 130 258 l 6 258 l 19 330 l 143 330 l 170 488 l 47 488 l 59 561 l 183 561 l 208 704 l 280 704 l 255 561 l 388 561 l 413 704 l 486 704 l 461 561 l 584 561 m 376 488 l 243 488 l 215 330 l 348 330 l 376 488 "},"Ê":{"x_min":40.28125,"x_max":518.09375,"ha":696,"o":"m 518 0 l 40 0 l 40 833 l 518 833 l 518 754 l 120 754 l 120 455 l 518 455 l 518 376 l 120 376 l 120 79 l 518 79 l 518 0 m 494 945 l 492 944 l 394 944 l 310 1036 l 267 1036 l 182 944 l 83 944 l 80 945 l 239 1109 l 336 1109 l 494 945 "},")":{"x_min":83.34375,"x_max":344.46875,"ha":483,"o":"m 344 655 l 343 186 q 326 118 343 144 q 281 66 313 100 q 230 22 248 33 q 159 0 195 0 l 83 0 l 83 79 l 152 79 q 170 83 163 79 q 216 118 188 91 q 256 169 244 145 q 262 187 262 180 l 262 652 q 256 673 262 662 q 216 724 244 697 q 170 759 188 751 q 152 763 163 763 l 83 763 l 83 843 l 159 843 q 231 820 197 843 q 281 776 250 809 q 326 723 313 743 q 344 655 344 695 "},"Å":{"x_min":-34.71875,"x_max":648.65625,"ha":753,"o":"m 483 1054 q 458 977 483 1009 q 398 920 430 938 q 333 901 370 901 l 295 901 q 230 920 259 901 q 198 946 219 927 q 168 979 177 965 q 144 1054 144 1009 l 144 1080 q 169 1155 144 1120 q 230 1213 200 1193 q 295 1233 262 1233 l 333 1233 q 398 1213 368 1233 q 458 1157 430 1193 q 483 1080 483 1122 l 483 1054 m 423 1054 l 423 1079 q 419 1102 423 1095 q 356 1168 394 1147 q 334 1170 351 1170 l 293 1170 q 272 1168 277 1170 q 209 1102 233 1144 q 204 1079 204 1088 l 204 1054 q 209 1032 204 1043 q 237 995 218 1015 q 272 966 256 975 q 293 962 277 962 l 336 962 q 356 966 351 962 q 419 1032 394 986 q 423 1054 423 1037 m 562 0 l 500 193 l 113 193 l 50 0 l -34 0 l 244 837 l 369 836 l 648 0 l 562 0 m 138 270 l 475 270 l 315 754 l 297 754 l 138 270 "},"Δ":{"x_min":0,"x_max":0,"ha":861},"ø":{"x_min":13.890625,"x_max":502.8125,"ha":649,"o":"m 502 159 q 483 86 502 115 q 420 19 450 40 q 334 -6 386 -6 l 181 -6 q 138 -1 156 -6 l 119 -40 l 34 -40 l 75 37 q 33 86 44 68 q 13 159 13 115 l 13 437 q 33 511 13 481 q 95 577 66 556 q 181 604 130 604 l 334 604 q 370 600 352 604 l 386 630 l 469 630 l 436 565 q 483 511 465 538 q 502 437 502 481 l 502 159 m 427 162 l 427 434 q 425 458 427 452 q 398 493 416 475 l 175 65 l 183 65 l 333 65 q 358 70 348 65 q 425 138 401 95 q 427 162 427 144 m 334 531 l 333 531 l 183 531 q 158 526 168 531 q 91 458 115 501 q 87 434 87 450 l 87 162 q 91 138 87 147 q 112 109 106 116 l 334 531 "},"â":{"x_min":0,"x_max":493.09375,"ha":653,"o":"m 493 -1 l 418 -1 l 409 68 q 356 20 384 41 q 288 -8 316 -8 l 166 -8 q 81 18 116 -8 q 20 83 54 38 q 0 156 0 113 l 0 184 q 20 258 0 227 q 81 323 54 302 q 166 350 116 350 l 408 350 l 408 434 q 405 456 408 451 q 338 525 381 500 q 313 530 329 530 l 183 530 q 159 525 169 530 q 119 487 145 518 l 94 456 l 93 455 l 22 479 q 26 486 23 481 q 34 498 29 491 q 41 509 38 505 q 101 577 80 562 q 187 602 134 602 l 315 602 q 401 576 366 602 q 463 511 433 554 q 483 436 483 481 l 483 97 l 493 -1 m 304 68 q 409 152 386 111 l 409 277 l 168 277 q 143 272 152 277 q 79 205 102 250 q 75 183 75 197 l 75 158 q 79 136 75 144 q 143 69 102 91 q 168 63 152 63 l 284 63 q 304 68 295 63 m 467 745 l 465 744 l 367 744 l 283 836 l 240 836 l 155 744 l 56 744 l 53 745 l 212 909 l 309 909 l 467 745 "},"}":{"x_min":83.34375,"x_max":336.140625,"ha":475,"o":"m 336 186 q 318 119 336 147 q 262 55 298 91 l 140 -63 l 83 -5 l 200 106 q 248 169 227 131 q 254 188 254 180 l 254 651 q 248 672 254 661 q 200 733 229 707 l 83 847 l 140 905 l 262 786 q 318 720 295 752 q 336 654 336 693 l 336 186 "},"‰":{"x_min":41.671875,"x_max":1186.203125,"ha":1289,"o":"m 1186 154 q 1168 88 1186 116 q 1105 23 1140 50 q 1030 0 1075 0 l 1001 0 q 925 23 955 0 q 863 88 893 48 q 844 154 844 119 l 844 255 q 863 320 844 290 q 925 386 893 361 q 1001 409 955 409 l 1030 409 q 1105 386 1075 409 q 1168 320 1140 359 q 1186 255 1186 293 l 1186 154 m 1120 151 l 1120 256 q 1116 277 1120 269 q 1051 340 1097 313 q 1029 345 1040 345 l 1002 345 q 980 340 991 345 q 943 311 963 330 q 913 277 922 293 q 911 256 911 272 l 911 151 q 913 130 911 136 q 943 96 922 115 q 980 68 963 77 q 1002 63 988 63 l 1029 63 q 1051 69 1040 63 q 1088 97 1068 79 q 1116 130 1108 116 q 1120 151 1120 138 m 383 581 q 365 516 383 544 q 302 452 340 480 q 226 430 275 430 l 197 430 q 122 452 150 430 q 59 516 84 480 q 41 581 41 544 l 41 684 q 59 750 41 722 q 122 816 88 791 q 197 840 152 840 l 226 840 q 302 816 272 840 q 365 750 336 791 q 383 684 383 722 l 383 581 m 316 580 l 316 687 q 313 708 316 702 q 248 770 294 744 q 226 775 240 775 l 198 775 q 176 770 184 775 q 111 708 130 744 q 106 687 106 700 l 106 580 q 111 561 106 569 q 176 498 130 525 q 198 494 184 494 l 226 494 q 248 498 240 494 q 313 561 294 525 q 316 580 316 566 m 677 838 l 238 0 l 152 0 l 593 838 l 677 838 m 794 154 q 776 88 794 116 q 713 23 748 50 q 638 0 683 0 l 609 0 q 533 23 563 0 q 472 88 501 48 q 452 154 452 119 l 452 255 q 472 320 452 290 q 533 386 501 361 q 609 409 563 409 l 638 409 q 713 386 683 409 q 776 320 748 359 q 794 255 794 293 l 794 154 m 729 151 l 729 256 q 725 277 729 269 q 659 340 705 313 q 637 345 648 345 l 611 345 q 588 340 600 345 q 551 311 572 330 q 522 277 530 293 q 519 256 519 272 l 519 151 q 522 130 519 136 q 551 96 530 115 q 588 68 572 77 q 611 63 597 63 l 637 63 q 659 69 648 63 q 696 97 676 79 q 725 130 716 116 q 729 151 729 138 "},"Ä":{"x_min":-34.71875,"x_max":648.65625,"ha":753,"o":"m 562 0 l 500 193 l 113 193 l 50 0 l -34 0 l 244 836 l 369 836 l 648 0 l 562 0 m 138 270 l 475 270 l 315 754 l 297 754 l 138 270 m 452 937 l 366 937 l 366 1026 l 452 1026 l 452 937 m 249 937 l 163 937 l 163 1026 l 249 1026 l 249 937 "},"¸":{"x_min":138.90625,"x_max":294.46875,"ha":564,"o":"m 294 -90 l 223 -244 l 138 -244 l 220 -63 l 294 -90 "},"a":{"x_min":0,"x_max":493.09375,"ha":653,"o":"m 493 -1 l 418 -1 l 409 68 q 356 20 384 41 q 288 -8 316 -8 l 166 -8 q 81 18 116 -8 q 20 83 54 38 q 0 156 0 113 l 0 184 q 20 258 0 227 q 81 323 54 302 q 166 350 116 350 l 408 350 l 408 434 q 405 456 408 451 q 338 525 381 500 q 313 530 329 530 l 183 530 q 159 525 169 530 q 119 487 145 518 l 94 456 l 93 455 l 22 479 q 26 486 23 481 q 34 498 29 491 q 41 509 38 505 q 101 577 80 562 q 187 602 134 602 l 315 602 q 401 576 366 602 q 463 511 433 554 q 483 436 483 481 l 483 97 l 493 -1 m 304 68 q 409 152 386 111 l 409 277 l 168 277 q 143 272 152 277 q 79 205 102 250 q 75 183 75 197 l 75 158 q 79 136 75 144 q 143 69 102 91 q 168 63 152 63 l 284 63 q 304 68 295 63 "},"—":{"x_min":27.78125,"x_max":607,"ha":760,"o":"m 607 308 l 27 308 l 27 379 l 607 379 l 607 308 "},"=":{"x_min":30.5625,"x_max":508.375,"ha":661,"o":"m 508 387 l 30 387 l 30 461 l 508 461 l 508 387 m 508 230 l 30 230 l 30 302 l 508 302 l 508 230 "},"N":{"x_min":40.28125,"x_max":587.546875,"ha":765,"o":"m 587 0 l 481 0 l 119 708 l 119 0 l 40 0 l 40 832 l 148 832 l 508 116 l 508 832 l 587 832 l 587 0 "},"˚":{"x_min":27.78125,"x_max":366.703125,"ha":519,"o":"m 366 833 q 341 757 366 791 q 281 700 318 725 q 216 680 251 680 l 179 680 q 113 700 144 680 q 51 758 75 727 q 27 833 27 790 l 27 859 q 52 934 27 900 q 113 993 77 968 q 179 1012 144 1012 l 216 1012 q 281 993 251 1012 q 341 936 318 968 q 366 859 366 901 l 366 833 m 306 833 l 306 858 q 302 882 306 873 q 240 947 279 925 q 218 950 234 950 l 176 950 q 155 947 161 950 q 93 882 116 925 q 87 858 87 870 l 87 833 q 93 811 87 822 q 155 745 116 768 q 176 741 163 741 l 219 741 q 240 745 231 741 q 302 811 279 768 q 306 833 306 819 "},"ú":{"x_min":22.21875,"x_max":498.65625,"ha":658,"o":"m 498 -1 l 423 -1 l 415 69 q 363 22 387 38 q 294 -6 323 -6 l 190 -6 q 104 19 138 -6 q 41 86 75 40 q 22 159 22 115 l 22 597 l 97 597 l 97 162 q 100 138 97 144 q 166 70 123 95 q 191 65 176 65 l 290 65 q 309 69 301 65 q 413 152 387 111 l 413 597 l 488 597 l 488 98 l 498 -1 m 398 909 l 223 720 l 144 745 l 295 909 l 398 909 "},"⁄":{"x_min":0,"x_max":0,"ha":900},"2":{"x_min":27.78125,"x_max":545.875,"ha":700,"o":"m 545 569 q 458 438 545 486 l 169 283 q 125 218 125 258 l 125 79 l 534 79 l 534 0 l 43 0 l 43 225 q 131 354 43 306 l 423 509 q 463 573 463 530 l 465 662 q 461 686 465 677 q 394 752 438 727 q 370 758 384 758 l 219 758 q 198 754 205 758 q 154 718 180 744 q 115 668 127 691 q 105 650 111 662 l 27 673 q 56 727 41 705 q 143 815 102 790 q 215 837 177 837 l 372 837 q 455 811 420 837 q 493 775 469 801 q 525 737 518 748 q 545 665 545 705 l 545 569 "},"ü":{"x_min":22.21875,"x_max":498.65625,"ha":658,"o":"m 498 -1 l 423 -1 l 415 69 q 363 22 387 38 q 294 -6 323 -6 l 190 -6 q 104 19 138 -6 q 41 86 75 40 q 22 159 22 115 l 22 597 l 97 597 l 97 162 q 100 138 97 144 q 166 70 123 95 q 191 65 176 65 l 290 65 q 309 69 301 65 q 413 152 387 111 l 413 597 l 488 597 l 488 98 l 498 -1 m 409 752 l 323 752 l 323 841 l 409 841 l 409 752 m 206 752 l 120 752 l 120 841 l 206 841 l 206 752 "},"¯":{"x_min":36.109375,"x_max":263.90625,"ha":286,"o":"m 263 751 l 36 751 l 36 840 l 263 840 l 263 751 "},"Z":{"x_min":40.28125,"x_max":545.875,"ha":682,"o":"m 545 0 l 40 0 l 40 69 l 445 754 l 40 754 l 40 833 l 545 833 l 545 761 l 145 79 l 545 79 l 545 0 "},"u":{"x_min":22.21875,"x_max":498.65625,"ha":658,"o":"m 498 -1 l 423 -1 l 415 69 q 363 22 387 38 q 294 -6 323 -6 l 190 -6 q 104 19 138 -6 q 41 86 75 40 q 22 159 22 115 l 22 597 l 97 597 l 97 162 q 100 138 97 144 q 166 70 123 95 q 191 65 176 65 l 290 65 q 309 69 301 65 q 413 152 387 111 l 413 597 l 488 597 l 488 98 l 498 -1 "},"˜":{"x_min":51.390625,"x_max":440.3125,"ha":642,"o":"m 440 794 l 369 777 q 304 812 355 819 l 202 787 q 109 799 154 775 q 51 872 65 823 l 122 888 q 187 854 136 847 l 288 879 q 381 867 337 891 q 440 794 426 843 "},"Ó":{"x_min":40.28125,"x_max":627.828125,"ha":790,"o":"m 627 179 q 609 111 627 138 q 565 59 597 93 q 515 15 533 26 q 443 -6 480 -6 l 223 -6 q 152 15 187 -6 q 102 59 134 26 q 56 111 69 93 q 40 179 40 137 l 40 648 q 56 716 40 690 q 102 768 69 734 q 152 813 134 802 q 223 836 187 836 l 443 836 q 515 813 480 836 q 565 769 533 802 q 609 716 597 736 q 627 648 627 688 l 627 179 m 545 180 l 545 645 q 541 666 545 658 q 501 717 529 690 q 455 752 473 744 q 437 757 448 757 l 230 757 q 212 752 219 757 q 166 717 194 744 q 126 666 138 690 q 120 645 120 655 l 120 180 q 126 162 120 173 q 166 111 138 138 q 212 76 194 84 q 230 72 219 72 l 437 72 q 455 76 450 72 q 501 111 473 84 q 541 162 529 138 q 545 180 545 170 m 459 1110 l 284 921 l 205 946 l 356 1110 l 459 1110 "},"k":{"x_min":29.171875,"x_max":500.046875,"ha":597,"o":"m 500 0 l 390 0 l 131 276 l 104 276 l 104 0 l 29 0 l 29 837 l 104 837 l 104 347 l 130 347 l 368 594 l 470 594 l 201 312 l 500 0 "},"ˇ":{"x_min":56.953125,"x_max":470.875,"ha":589,"o":"m 470 897 l 312 733 l 215 733 l 56 897 l 59 898 l 156 898 l 241 807 l 284 807 l 369 898 l 468 898 l 470 897 "},"Ù":{"x_min":40.28125,"x_max":593.109375,"ha":743,"o":"m 593 179 q 576 112 593 138 q 531 61 563 94 q 481 16 500 27 q 411 -5 447 -5 l 225 -5 q 152 16 187 -5 q 102 61 134 27 q 58 112 70 94 q 40 179 40 140 l 40 833 l 122 833 l 122 181 q 127 163 122 175 q 168 113 140 140 q 213 77 195 86 q 231 73 219 73 l 404 73 q 422 77 416 73 q 466 113 438 86 q 506 163 494 140 q 512 181 512 175 l 512 833 l 593 833 l 593 179 m 426 946 l 347 921 l 172 1110 l 274 1110 l 426 946 "},"Ÿ":{"x_min":0,"x_max":0,"ha":626},"¢":{"x_min":27.78125,"x_max":515.3125,"ha":626,"o":"m 515 116 q 497 86 513 112 q 436 19 462 38 q 351 -6 401 -6 l 304 -6 l 304 -133 l 229 -133 l 229 -6 l 195 -6 q 109 19 144 -6 q 47 86 80 40 q 27 159 27 115 l 27 437 q 47 511 27 481 q 109 577 80 556 q 195 604 144 604 l 229 604 l 229 748 l 304 748 l 304 604 l 347 604 q 431 577 397 604 q 493 509 455 561 q 500 498 495 505 q 508 486 505 491 q 512 479 511 481 l 441 455 l 440 458 q 412 495 433 473 q 375 526 391 516 q 350 531 365 531 l 304 531 l 304 65 l 354 65 q 379 70 369 65 q 416 102 395 80 q 443 138 436 123 l 444 141 l 515 116 m 229 65 l 229 531 l 197 531 q 172 526 181 531 q 105 458 129 501 q 101 434 101 450 l 101 162 q 105 138 101 147 q 172 70 129 95 q 197 65 181 65 l 229 65 "},"ß":{"x_min":26.390625,"x_max":604.21875,"ha":743,"o":"m 604 154 q 583 80 604 111 q 526 19 552 37 q 441 -6 491 -6 l 275 -6 q 190 19 225 -6 l 247 70 q 272 65 256 65 l 440 65 q 463 70 454 65 q 525 131 504 94 q 529 156 529 140 l 529 222 q 513 257 529 243 q 476 273 498 272 l 404 277 l 388 279 q 302 319 337 283 q 268 405 268 355 l 268 444 q 288 518 268 486 q 318 546 293 525 q 347 572 343 568 q 379 611 370 595 q 381 625 381 615 q 381 638 381 636 l 381 670 q 377 695 381 687 q 311 762 355 737 q 287 766 304 766 l 226 766 q 208 762 216 766 q 159 721 190 752 q 115 666 127 690 q 111 645 111 658 l 111 75 l 101 0 l 26 0 l 37 98 l 37 648 q 55 718 37 693 q 100 772 69 738 q 150 816 131 805 q 223 838 187 838 l 288 838 q 373 813 340 838 q 436 747 402 793 q 456 672 456 716 l 456 636 q 434 554 456 583 q 397 518 423 538 q 347 465 359 490 q 343 441 343 456 l 343 404 q 358 369 343 383 q 395 352 373 355 l 416 350 l 483 345 q 569 307 534 343 q 604 222 604 272 l 604 154 "},"é":{"x_min":27.78125,"x_max":504.203125,"ha":657,"o":"m 430 138 l 431 141 l 502 116 q 484 86 501 112 q 423 19 450 38 q 338 -6 388 -6 l 197 -6 q 111 19 145 -6 q 48 86 81 40 q 27 159 27 116 l 27 437 q 48 511 27 480 q 111 577 81 556 q 197 604 145 604 l 336 604 q 422 577 387 604 q 484 511 451 556 q 504 437 504 481 l 504 272 l 102 272 l 102 162 q 106 138 102 147 q 173 70 130 95 q 197 65 183 65 l 341 65 q 366 70 356 65 q 430 138 405 93 m 106 458 q 102 434 102 450 l 102 344 l 429 344 l 429 434 q 426 458 429 452 q 359 526 402 501 q 334 531 350 531 l 197 531 q 173 526 183 531 q 106 458 130 501 m 398 909 l 223 720 l 144 745 l 295 909 l 398 909 "},"s":{"x_min":2.78125,"x_max":495.875,"ha":649,"o":"m 495 154 q 475 80 495 111 q 418 19 444 37 q 333 -6 383 -6 l 166 -6 q 81 19 116 -6 q 22 86 58 36 q 14 97 19 90 q 6 109 9 104 q 2 116 4 113 l 73 141 l 75 138 q 102 102 81 123 q 138 70 122 80 q 163 65 148 65 l 331 65 q 355 70 345 65 q 416 133 395 93 q 420 156 420 141 l 420 206 q 405 241 420 227 q 368 258 390 255 l 138 275 q 52 315 87 279 q 18 401 18 351 l 18 444 q 38 518 18 486 q 95 579 69 561 q 180 605 130 605 l 325 605 q 409 579 375 605 q 470 512 436 559 q 478 501 473 508 q 486 489 483 494 q 490 481 488 484 l 419 456 l 418 459 q 390 496 411 475 q 352 527 369 518 q 329 533 343 533 l 181 533 q 156 527 166 533 q 97 465 119 506 q 93 441 93 456 l 93 400 q 108 365 93 379 q 145 348 123 351 l 375 330 q 461 290 426 326 q 495 204 495 254 l 495 154 "},"B":{"x_min":40.28125,"x_max":587.546875,"ha":751,"o":"m 587 170 q 568 100 587 129 q 536 62 561 88 q 498 26 512 36 q 415 0 463 0 l 40 0 l 40 834 l 415 834 q 498 807 461 834 q 536 770 512 795 q 568 734 561 745 q 587 661 587 705 l 587 548 q 568 475 587 504 q 513 416 554 454 q 568 358 554 379 q 587 284 587 329 l 587 170 m 508 551 l 508 659 q 504 682 508 673 q 437 750 480 725 q 413 755 427 755 l 122 755 l 122 454 l 415 454 q 437 459 426 454 q 504 527 480 484 q 508 551 508 536 m 508 173 l 508 283 q 504 305 508 297 q 437 373 480 348 q 415 377 429 377 l 122 377 l 122 79 l 413 79 q 437 84 427 79 q 504 151 481 109 q 508 173 508 159 "},"…":{"x_min":105.5625,"x_max":648.65625,"ha":849,"o":"m 648 0 l 540 0 l 540 108 l 648 108 l 648 0 m 431 0 l 323 0 l 323 108 l 431 108 l 431 0 m 213 0 l 105 0 l 105 108 l 213 108 l 213 0 "},"?":{"x_min":4.171875,"x_max":536.15625,"ha":631,"o":"m 536 569 q 511 493 536 527 q 448 438 487 458 l 356 390 q 312 325 312 366 l 312 236 l 231 236 l 231 331 q 319 461 231 416 l 413 509 q 454 573 454 530 l 455 662 q 451 686 455 677 q 384 752 429 727 q 361 758 375 758 l 195 758 q 175 754 180 758 q 130 718 156 744 q 91 668 104 691 q 81 650 87 662 l 4 673 q 33 727 18 705 q 119 815 79 790 q 191 837 154 837 l 362 837 q 445 811 411 837 q 484 775 459 801 q 515 737 508 748 q 536 665 536 705 l 536 569 m 325 0 l 219 0 l 219 105 l 325 105 l 325 0 "},"H":{"x_min":40.28125,"x_max":594.484375,"ha":772,"o":"m 594 0 l 513 0 l 513 376 l 122 376 l 122 0 l 40 0 l 40 834 l 122 834 l 122 455 l 513 455 l 513 834 l 594 834 l 594 0 "},"î":{"x_min":-128.046875,"x_max":285.875,"ha":286,"o":"m 115 0 l 40 0 l 40 597 l 115 597 l 115 0 m 285 745 l 283 744 l 185 744 l 101 836 l 58 836 l -26 744 l -125 744 l -128 745 l 30 909 l 127 909 l 285 745 "},"c":{"x_min":27.78125,"x_max":501.421875,"ha":640,"o":"m 501 116 q 483 86 500 112 q 422 19 448 38 q 337 -6 387 -6 l 195 -6 q 109 19 144 -6 q 47 86 80 40 q 27 159 27 115 l 27 437 q 47 511 27 481 q 109 577 80 556 q 195 604 144 604 l 333 604 q 418 577 383 604 q 479 509 441 561 q 486 498 481 505 q 494 486 491 491 q 498 479 497 481 l 427 455 l 426 458 q 398 495 419 473 q 361 526 377 516 q 336 531 351 531 l 197 531 q 172 526 181 531 q 105 458 129 501 q 101 434 101 450 l 101 162 q 105 138 101 147 q 172 70 129 95 q 197 65 181 65 l 340 65 q 365 70 355 65 q 402 102 381 80 q 429 138 422 123 l 430 141 l 501 116 "},"¶":{"x_min":31.953125,"x_max":594.484375,"ha":718,"o":"m 594 0 l 513 0 l 513 375 l 429 375 l 429 0 l 355 0 l 355 375 l 206 375 q 123 401 158 375 q 84 437 109 412 q 52 473 59 462 q 31 545 31 505 l 31 661 q 52 733 31 702 q 84 770 59 744 q 123 807 109 795 q 206 833 158 833 l 594 833 l 594 0 m 513 454 l 513 754 l 429 754 l 429 454 l 513 454 m 355 454 l 355 754 l 208 754 q 183 750 190 754 q 118 682 141 726 q 113 658 113 673 l 113 548 q 118 525 113 533 q 183 459 140 484 q 208 454 193 454 l 355 454 "},"−":{"x_min":27.78125,"x_max":479.203125,"ha":632,"o":"m 479 308 l 27 308 l 27 379 l 479 379 l 479 308 "},"≠":{"x_min":0,"x_max":0,"ha":1111},"•":{"x_min":69.453125,"x_max":408.359375,"ha":601,"o":"m 408 336 q 383 259 408 294 q 323 202 359 227 q 258 183 293 183 l 220 183 q 155 202 186 183 q 93 261 116 230 q 69 336 69 293 l 69 362 q 94 437 69 402 q 155 495 119 470 q 220 515 186 515 l 258 515 q 323 495 293 515 q 383 438 359 470 q 408 362 408 404 l 408 336 "},"¥":{"x_min":0,"x_max":593.109375,"ha":675,"o":"m 593 833 l 375 451 l 526 451 l 526 379 l 336 379 l 336 297 l 526 297 l 526 226 l 336 226 l 336 0 l 255 0 l 255 226 l 58 226 l 58 297 l 255 297 l 255 379 l 58 379 l 58 451 l 216 451 l 0 833 l 86 833 l 287 476 l 305 476 l 508 833 l 593 833 "},"(":{"x_min":27.78125,"x_max":287.515625,"ha":483,"o":"m 287 0 l 211 0 q 140 22 175 0 q 89 66 122 33 q 44 118 56 100 q 29 186 29 141 l 27 655 q 44 723 27 697 q 88 776 56 743 q 138 820 120 809 q 211 843 173 843 l 287 843 l 287 763 l 218 763 q 200 759 205 763 q 154 724 181 751 q 113 673 126 697 q 109 652 109 665 l 109 187 q 113 169 109 177 q 154 118 126 145 q 200 83 181 91 q 218 79 205 79 l 287 79 l 287 0 "},"U":{"x_min":40.28125,"x_max":593.109375,"ha":760,"o":"m 593 179 q 576 112 593 138 q 531 61 563 94 q 481 16 500 27 q 411 -5 447 -5 l 225 -5 q 152 16 187 -5 q 102 61 134 27 q 58 112 70 94 q 40 179 40 140 l 40 833 l 122 833 l 122 181 q 127 163 122 175 q 168 113 140 140 q 213 77 195 86 q 231 73 219 73 l 404 73 q 422 77 416 73 q 466 113 438 86 q 506 163 494 140 q 512 181 512 175 l 512 833 l 593 833 l 593 179 "},"◊":{"x_min":94.453125,"x_max":559.765625,"ha":776,"o":"m 559 415 q 533 330 559 365 q 459 259 506 294 q 386 238 427 238 l 269 238 q 195 259 227 238 q 120 330 144 297 q 94 415 94 365 l 94 450 q 120 534 94 500 q 195 605 144 568 q 269 626 227 626 l 386 626 q 459 605 427 626 q 533 534 506 570 q 559 450 559 500 l 559 415 m 487 416 l 487 448 q 481 473 487 463 q 450 515 472 491 q 411 547 427 538 q 387 551 402 551 l 268 551 q 244 547 252 551 q 205 515 227 538 q 173 473 183 491 q 168 448 168 463 l 168 416 q 173 391 168 401 q 205 350 183 373 q 244 318 227 326 q 268 313 252 313 l 387 313 q 411 318 402 313 q 450 350 427 326 q 481 391 472 373 q 487 416 487 401 "},"Ñ":{"x_min":40.28125,"x_max":587.546875,"ha":765,"o":"m 587 0 l 481 0 l 119 708 l 119 0 l 40 0 l 40 832 l 148 832 l 508 116 l 508 832 l 587 832 l 587 0 m 521 986 l 450 969 q 385 1004 436 1011 l 283 979 q 190 991 235 967 q 132 1064 146 1015 l 203 1080 q 268 1046 217 1039 l 369 1071 q 462 1059 418 1083 q 521 986 507 1035 "},"F":{"x_min":40.28125,"x_max":518.09375,"ha":668,"o":"m 518 754 l 120 754 l 120 455 l 497 455 l 497 376 l 120 376 l 120 0 l 40 0 l 40 833 l 518 833 l 518 754 "},":":{"x_min":76.390625,"x_max":184.734375,"ha":406,"o":"m 184 397 l 76 397 l 76 505 l 184 505 l 184 397 m 184 0 l 76 0 l 76 108 l 184 108 l 184 0 "},"Û":{"x_min":40.28125,"x_max":593.109375,"ha":743,"o":"m 593 179 q 576 112 593 138 q 531 61 563 94 q 481 16 500 27 q 411 -5 447 -5 l 225 -5 q 152 16 187 -5 q 102 61 134 27 q 58 112 70 94 q 40 179 40 140 l 40 833 l 122 833 l 122 181 q 127 163 122 175 q 168 113 140 140 q 213 77 195 86 q 231 73 219 73 l 404 73 q 422 77 416 73 q 466 113 438 86 q 506 163 494 140 q 512 181 512 175 l 512 833 l 593 833 l 593 179 m 517 946 l 515 945 l 417 945 l 333 1037 l 290 1037 l 205 945 l 106 945 l 103 946 l 262 1110 l 359 1110 l 517 946 "},"*":{"x_min":18.0625,"x_max":502.8125,"ha":642,"o":"m 502 494 l 437 473 l 290 627 l 290 441 l 229 441 l 229 627 l 83 473 l 18 494 l 156 636 l 156 661 l 18 805 l 83 825 l 229 677 l 229 858 l 290 858 l 290 677 l 437 825 l 502 805 l 362 661 l 362 636 l 502 494 "},"†":{"x_min":55.5625,"x_max":323.640625,"ha":463,"o":"m 323 516 l 225 516 l 225 163 l 152 163 l 152 516 l 55 516 l 55 587 l 152 587 l 152 823 l 225 823 l 225 587 l 323 587 l 323 516 "},"°":{"x_min":27.78125,"x_max":366.703125,"ha":519,"o":"m 366 833 q 341 757 366 791 q 281 700 318 725 q 216 680 251 680 l 179 680 q 113 700 144 680 q 51 758 75 727 q 27 833 27 790 l 27 859 q 52 934 27 900 q 113 993 77 968 q 179 1012 144 1012 l 216 1012 q 281 993 251 1012 q 341 936 318 968 q 366 859 366 901 l 366 833 m 306 833 l 306 858 q 302 882 306 873 q 240 947 279 925 q 218 950 234 950 l 176 950 q 155 947 161 950 q 93 882 116 925 q 87 858 87 870 l 87 833 q 93 811 87 822 q 155 745 116 768 q 176 741 163 741 l 219 741 q 240 745 231 741 q 302 811 279 768 q 306 833 306 819 "},"V":{"x_min":0,"x_max":669.5,"ha":765,"o":"m 669 834 l 397 0 l 272 0 l 0 834 l 84 834 l 325 86 l 344 86 l 584 834 l 669 834 "},"å":{"x_min":0,"x_max":506.984375,"ha":667,"o":"m 425 833 q 400 757 425 791 q 340 700 372 720 q 275 680 309 680 l 237 680 q 172 700 202 680 q 109 758 133 727 q 86 833 86 790 l 86 859 q 111 934 86 900 q 172 993 136 968 q 237 1012 202 1012 l 275 1012 q 340 993 309 1012 q 400 936 372 972 q 425 859 425 901 l 425 833 m 365 833 l 365 858 q 361 882 365 876 q 298 947 337 925 q 276 950 293 950 l 234 950 q 213 947 219 950 q 151 882 173 922 q 145 858 145 870 l 145 833 q 151 811 145 822 q 213 745 173 770 q 234 741 222 741 l 277 741 q 298 745 290 741 q 361 811 337 768 q 365 833 365 816 m 506 -1 l 431 -1 l 423 68 q 370 20 398 41 q 302 -8 330 -8 l 166 -8 q 81 18 116 -8 q 20 83 54 38 q 0 156 0 113 l 0 184 q 20 258 0 227 q 81 323 54 302 q 166 350 116 350 l 422 350 l 422 434 q 419 456 422 451 q 352 525 395 500 q 327 530 343 530 l 183 530 q 159 525 169 530 q 119 487 145 518 l 94 456 l 93 455 l 22 479 q 26 486 23 481 q 34 498 29 491 q 41 509 38 505 q 101 577 80 562 q 187 602 134 602 l 329 602 q 415 576 380 602 q 477 511 447 554 q 497 436 497 481 l 497 97 l 506 -1 m 318 68 q 423 152 400 111 l 423 277 l 168 277 q 143 272 152 277 q 79 205 102 250 q 75 183 75 197 l 75 158 q 79 136 75 144 q 143 69 102 91 q 168 63 152 63 l 298 63 q 318 68 309 63 "}," ":{"x_min":0,"x_max":0,"ha":278},"0":{"x_min":27.78125,"x_max":547.265625,"ha":700,"o":"m 547 165 q 526 94 547 125 q 495 56 519 83 q 456 20 470 30 q 373 -5 422 -5 l 200 -5 q 118 20 152 -5 q 79 56 104 30 q 48 94 55 83 q 27 165 27 125 l 27 666 q 48 738 27 707 q 79 776 55 750 q 118 812 104 802 q 200 838 152 838 l 373 838 q 456 812 422 838 q 495 776 470 802 q 526 738 519 750 q 547 666 547 707 l 547 165 m 466 168 l 466 663 q 462 687 466 679 q 395 754 440 729 q 372 759 386 759 l 201 759 q 177 754 187 759 q 111 687 133 729 q 108 663 108 682 l 108 168 q 111 145 108 151 q 177 79 133 104 q 201 73 187 73 l 372 73 q 395 79 386 73 q 462 145 440 104 q 466 168 466 154 "},"”":{"x_min":73.609375,"x_max":355.578125,"ha":515,"o":"m 355 718 l 347 641 l 273 641 l 283 736 l 283 909 l 355 909 l 355 718 m 155 718 l 147 641 l 73 641 l 83 736 l 83 909 l 155 909 l 155 718 "},"¾":{"x_min":4.171875,"x_max":752.84375,"ha":915,"o":"m 676 838 l 237 0 l 152 0 l 591 838 l 676 838 m 350 554 q 331 500 350 523 q 276 451 319 483 q 206 429 248 429 l 144 429 q 80 447 109 429 q 56 463 69 454 q 29 484 44 472 q 4 505 13 497 l 50 550 q 123 497 122 498 q 141 494 127 494 l 204 494 q 226 498 218 494 q 280 540 272 525 q 284 552 284 550 l 283 566 q 280 578 281 573 q 274 588 279 583 q 268 594 269 593 q 256 600 266 595 q 245 605 247 604 l 134 605 l 134 663 l 245 663 q 252 667 248 665 q 257 670 255 669 q 262 672 259 670 q 267 675 265 675 q 271 678 269 676 q 275 682 273 680 q 277 686 276 684 q 280 691 279 688 q 282 697 281 694 q 283 704 283 700 l 284 715 q 280 729 286 719 q 226 772 270 747 q 204 776 218 776 l 141 776 q 123 772 130 776 q 50 719 122 770 l 4 765 q 80 820 59 808 q 144 840 112 840 l 206 840 q 276 816 245 840 q 331 770 323 780 q 350 718 350 747 l 350 695 q 326 633 350 654 q 350 575 350 609 l 350 554 m 752 101 l 684 101 l 684 1 l 627 1 l 627 101 l 422 101 l 422 159 l 627 412 l 684 412 l 684 159 l 752 159 l 752 101 m 627 159 l 627 322 l 495 159 l 627 159 "},"@":{"x_min":27.78125,"x_max":616.71875,"ha":753,"o":"m 616 180 l 547 180 l 536 227 q 509 202 525 213 q 495 189 504 198 q 479 177 486 180 q 462 173 472 173 l 358 173 q 266 200 301 173 q 232 231 252 209 q 205 265 212 254 q 186 337 186 294 l 186 433 q 205 505 186 476 q 232 538 212 516 q 266 570 252 561 q 354 595 300 595 l 529 595 l 529 655 q 525 676 529 668 q 482 729 512 700 q 434 766 452 758 q 416 770 427 770 l 216 770 q 198 766 205 770 q 149 727 180 758 q 105 673 118 697 q 101 652 101 665 l 101 187 q 105 169 101 177 q 149 115 118 145 q 198 76 180 84 q 216 72 204 72 l 531 72 l 543 0 l 209 0 q 138 22 173 0 q 88 66 120 33 q 44 118 56 100 q 27 186 27 144 l 27 655 q 43 723 27 700 q 88 775 55 741 q 138 820 120 809 q 209 843 173 843 l 419 843 q 491 820 456 843 q 584 723 540 790 q 602 655 602 695 l 602 279 l 616 180 m 529 311 l 529 523 l 352 523 q 327 519 334 523 q 291 490 311 509 q 262 452 272 470 q 259 430 259 447 l 259 340 q 262 316 259 322 q 291 279 272 298 q 327 250 311 259 q 352 245 334 245 l 438 245 q 458 250 452 245 q 529 311 487 265 "},"ö":{"x_min":20.828125,"x_max":495.875,"ha":649,"o":"m 495 159 q 476 86 495 115 q 413 19 443 40 q 327 -6 379 -6 l 188 -6 q 102 19 137 -6 q 40 86 73 40 q 20 159 20 115 l 20 437 q 40 511 20 481 q 102 577 73 556 q 188 604 137 604 l 327 604 q 413 577 379 604 q 476 511 443 556 q 495 437 495 481 l 495 159 m 420 162 l 420 434 q 418 458 420 452 q 351 526 394 501 q 326 531 341 531 l 190 531 q 165 526 175 531 q 98 458 122 501 q 94 434 94 450 l 94 162 q 98 138 94 147 q 165 70 122 95 q 190 65 175 65 l 326 65 q 351 70 341 65 q 418 138 394 95 q 420 162 420 144 m 405 752 l 319 752 l 319 841 l 405 841 l 405 752 m 202 752 l 116 752 l 116 841 l 202 841 l 202 752 "},"i":{"x_min":36.109375,"x_max":122.234375,"ha":286,"o":"m 122 751 l 36 751 l 36 840 l 122 840 l 122 751 m 115 0 l 40 0 l 40 597 l 115 597 l 115 0 "},"≤":{"x_min":20.828125,"x_max":500.046875,"ha":629,"o":"m 500 600 l 136 394 l 136 375 l 498 169 l 498 81 l 20 355 l 20 415 l 500 687 l 500 600 "},"Õ":{"x_min":40.28125,"x_max":627.828125,"ha":790,"o":"m 627 179 q 609 111 627 138 q 565 59 597 93 q 515 15 533 26 q 443 -6 480 -6 l 223 -6 q 152 15 187 -6 q 102 59 134 26 q 56 111 69 93 q 40 179 40 137 l 40 648 q 56 716 40 690 q 102 768 69 734 q 152 813 134 802 q 223 836 187 836 l 443 836 q 515 813 480 836 q 565 769 533 802 q 609 716 597 736 q 627 648 627 688 l 627 179 m 545 180 l 545 645 q 541 666 545 658 q 501 717 529 690 q 455 752 473 744 q 437 757 448 757 l 230 757 q 212 752 219 757 q 166 717 194 744 q 126 666 138 690 q 120 645 120 655 l 120 180 q 126 162 120 173 q 166 111 138 138 q 212 76 194 84 q 230 72 219 72 l 437 72 q 455 76 450 72 q 501 111 473 84 q 541 162 529 138 q 545 180 545 170 m 541 943 l 470 926 q 405 961 456 968 l 303 936 q 210 948 255 924 q 152 1021 166 972 l 223 1037 q 288 1003 237 996 l 389 1028 q 482 1016 438 1040 q 541 943 527 992 "},"]":{"x_min":83.34375,"x_max":298.640625,"ha":438,"o":"m 298 0 l 83 0 l 83 70 l 218 70 l 218 762 l 83 762 l 83 833 l 298 833 l 298 0 "},"m":{"x_min":27.78125,"x_max":822.28125,"ha":989,"o":"m 822 0 l 748 0 l 748 434 q 744 458 748 450 q 677 526 720 501 q 652 530 670 530 l 593 530 q 572 526 580 530 q 469 445 491 480 l 469 437 l 469 0 l 395 0 l 395 434 q 391 458 395 450 q 325 526 368 501 q 300 530 318 530 l 236 530 q 216 526 225 530 q 179 499 205 520 q 131 459 152 477 l 111 441 l 111 0 l 36 0 l 36 498 l 27 598 l 102 598 l 111 526 q 163 575 140 556 q 231 604 204 604 l 301 604 q 387 577 352 604 q 450 511 416 556 l 451 508 q 519 575 493 555 q 588 604 559 604 l 654 604 q 740 577 705 604 q 802 511 769 556 q 822 437 822 481 l 822 0 "},"8":{"x_min":27.78125,"x_max":545.875,"ha":700,"o":"m 545 163 q 525 91 545 122 q 493 54 518 80 q 455 18 469 27 q 373 -8 420 -8 l 200 -8 q 118 18 152 -8 q 79 54 104 27 q 48 91 55 80 q 27 163 27 122 l 27 290 q 48 362 27 330 q 102 420 62 383 q 48 480 65 455 q 27 552 27 511 l 27 668 q 48 741 27 711 q 79 777 55 752 q 118 813 104 802 q 200 840 152 840 l 373 840 q 455 813 420 840 q 493 777 469 802 q 525 741 518 752 q 545 668 545 711 l 545 552 q 525 480 545 511 q 470 420 508 455 q 525 362 511 383 q 545 290 545 330 l 545 163 m 465 555 l 465 665 q 461 688 465 680 q 394 757 437 732 q 372 762 384 762 l 201 762 q 177 757 187 762 q 112 688 136 733 q 108 665 108 680 l 108 555 q 112 531 108 540 q 177 463 136 487 q 201 459 184 459 l 372 459 q 394 465 384 459 q 461 531 438 490 q 465 555 465 540 m 465 165 l 465 287 q 461 309 465 301 q 394 376 438 351 q 372 381 384 381 l 201 381 q 177 376 187 381 q 141 347 161 366 q 112 309 122 327 q 108 287 108 301 l 108 165 q 112 143 108 151 q 141 105 122 125 q 177 76 161 86 q 201 70 187 70 l 372 70 q 394 76 384 70 q 461 143 438 101 q 465 165 465 151 "},"ž":{"x_min":0,"x_max":0,"ha":671},"R":{"x_min":40.28125,"x_max":626.4375,"ha":765,"o":"m 626 0 l 534 0 l 336 368 l 122 368 l 122 0 l 40 0 l 40 833 l 415 833 q 498 807 463 833 q 536 770 512 797 q 568 733 561 744 q 588 661 588 702 l 588 538 q 568 466 588 497 q 536 430 561 455 q 498 394 512 405 q 423 368 468 370 l 626 0 m 506 541 l 506 658 q 504 682 506 676 q 437 750 480 725 q 413 754 430 754 l 122 754 l 122 447 l 413 447 q 437 452 427 447 q 504 518 483 479 q 506 541 506 523 "},"á":{"x_min":0,"x_max":493.09375,"ha":653,"o":"m 493 -1 l 418 -1 l 409 68 q 356 20 384 41 q 288 -8 316 -8 l 166 -8 q 81 18 116 -8 q 20 83 54 38 q 0 156 0 113 l 0 184 q 20 258 0 227 q 81 323 54 302 q 166 350 116 350 l 408 350 l 408 434 q 405 456 408 451 q 338 525 381 500 q 313 530 329 530 l 183 530 q 159 525 169 530 q 119 487 145 518 l 94 456 l 93 455 l 22 479 q 26 486 23 481 q 34 498 29 491 q 41 509 38 505 q 101 577 80 562 q 187 602 134 602 l 315 602 q 401 576 366 602 q 463 511 433 554 q 483 436 483 481 l 483 97 l 493 -1 m 304 68 q 409 152 386 111 l 409 277 l 168 277 q 143 272 152 277 q 79 205 102 250 q 75 183 75 197 l 75 158 q 79 136 75 144 q 143 69 102 91 q 168 63 152 63 l 284 63 q 304 68 295 63 m 398 909 l 223 720 l 144 745 l 295 909 l 398 909 "},"×":{"x_min":0,"x_max":0,"ha":833},"o":{"x_min":20.828125,"x_max":495.875,"ha":656,"o":"m 495 159 q 476 86 495 115 q 413 19 443 40 q 327 -6 379 -6 l 188 -6 q 102 19 137 -6 q 40 86 73 40 q 20 159 20 115 l 20 437 q 40 511 20 481 q 102 577 73 556 q 188 604 137 604 l 327 604 q 413 577 379 604 q 476 511 443 556 q 495 437 495 481 l 495 159 m 420 162 l 420 434 q 418 458 420 452 q 351 526 394 501 q 326 531 341 531 l 190 531 q 165 526 175 531 q 98 458 122 501 q 94 434 94 450 l 94 162 q 98 138 94 147 q 165 70 122 95 q 190 65 175 65 l 326 65 q 351 70 341 65 q 418 138 394 95 q 420 162 420 144 "},"5":{"x_min":27.78125,"x_max":551.4375,"ha":700,"o":"m 551 165 q 530 93 551 125 q 499 55 523 81 q 461 19 475 29 q 377 -6 426 -6 l 216 -6 q 144 15 179 -6 q 58 101 102 41 q 27 156 40 126 l 106 179 l 116 162 q 156 111 130 137 q 200 76 181 86 q 220 72 205 72 l 376 72 q 401 77 391 72 q 437 106 418 87 q 466 144 456 126 q 470 166 470 152 l 470 325 q 466 348 470 340 q 437 386 456 366 q 401 415 418 405 q 376 420 391 420 l 68 420 l 68 834 l 508 834 l 508 755 l 147 755 l 147 498 l 377 498 q 461 470 423 498 q 499 435 475 459 q 530 400 523 411 q 551 327 551 369 l 551 165 "},"õ":{"x_min":20.828125,"x_max":495.875,"ha":649,"o":"m 495 159 q 476 86 495 115 q 413 19 443 40 q 327 -6 379 -6 l 188 -6 q 102 19 137 -6 q 40 86 73 40 q 20 159 20 115 l 20 437 q 40 511 20 481 q 102 577 73 556 q 188 604 137 604 l 327 604 q 413 577 379 604 q 476 511 443 556 q 495 437 495 481 l 495 159 m 420 162 l 420 434 q 418 458 420 452 q 351 526 394 501 q 326 531 341 531 l 190 531 q 165 526 175 531 q 98 458 122 501 q 94 434 94 450 l 94 162 q 98 138 94 147 q 165 70 122 95 q 190 65 175 65 l 326 65 q 351 70 341 65 q 418 138 394 95 q 420 162 420 144 m 440 794 l 369 777 q 304 812 355 819 l 202 787 q 109 799 154 775 q 51 872 65 823 l 122 888 q 187 854 136 847 l 288 879 q 381 867 337 891 q 440 794 426 843 "},"7":{"x_min":20.828125,"x_max":540.328125,"ha":700,"o":"m 540 754 l 181 0 l 88 1 l 447 754 l 20 754 l 20 833 l 540 833 l 540 754 "},"K":{"x_min":40.28125,"x_max":588.9375,"ha":704,"o":"m 588 0 l 483 0 l 137 377 l 120 377 l 120 0 l 40 0 l 40 833 l 120 833 l 120 454 l 137 454 l 481 833 l 587 833 l 205 416 l 588 0 "},",":{"x_min":23.609375,"x_max":193.078125,"ha":414,"o":"m 193 86 l 109 -120 l 23 -120 l 119 112 l 193 86 "},"d":{"x_min":27.78125,"x_max":511.15625,"ha":671,"o":"m 48 511 q 111 577 81 556 q 195 604 145 604 l 304 604 q 373 575 333 604 q 427 525 398 555 l 427 838 l 502 838 l 502 98 l 511 0 l 436 0 l 427 73 q 373 22 394 37 q 304 -6 333 -6 l 195 -6 q 111 19 145 -6 q 48 86 81 40 q 27 159 27 116 l 27 437 q 48 511 27 480 m 102 162 q 106 138 102 147 q 172 70 130 94 q 197 65 181 65 l 300 65 q 319 69 311 65 q 425 154 400 112 l 427 159 l 427 437 l 425 443 q 319 527 401 484 q 300 531 311 531 l 197 531 q 172 526 181 531 q 106 458 130 502 q 102 434 102 450 l 102 162 "},"¨":{"x_min":116.671875,"x_max":405.59375,"ha":504,"o":"m 405 752 l 319 752 l 319 841 l 405 841 l 405 752 m 202 752 l 116 752 l 116 841 l 202 841 l 202 752 "},"Ô":{"x_min":40.28125,"x_max":627.828125,"ha":790,"o":"m 627 179 q 609 111 627 138 q 565 59 597 93 q 515 15 533 26 q 443 -6 480 -6 l 223 -6 q 152 15 187 -6 q 102 59 134 26 q 56 111 69 93 q 40 179 40 137 l 40 648 q 56 716 40 690 q 102 768 69 734 q 152 813 134 802 q 223 836 187 836 l 443 836 q 515 813 480 836 q 565 769 533 802 q 609 716 597 736 q 627 648 627 688 l 627 179 m 545 180 l 545 645 q 541 666 545 658 q 501 717 529 690 q 455 752 473 744 q 437 757 448 757 l 230 757 q 212 752 219 757 q 166 717 194 744 q 126 666 138 690 q 120 645 120 655 l 120 180 q 126 162 120 173 q 166 111 138 138 q 212 76 194 84 q 230 72 219 72 l 437 72 q 455 76 450 72 q 501 111 473 84 q 541 162 529 138 q 545 180 545 170 m 551 946 l 549 945 l 451 945 l 367 1037 l 324 1037 l 239 945 l 140 945 l 137 946 l 296 1110 l 393 1110 l 551 946 "},"E":{"x_min":40.28125,"x_max":518.09375,"ha":692,"o":"m 518 0 l 40 0 l 40 833 l 518 833 l 518 754 l 120 754 l 120 455 l 518 455 l 518 376 l 120 376 l 120 79 l 518 79 l 518 0 "},"Y":{"x_min":0,"x_max":579.21875,"ha":649,"o":"m 579 833 l 329 376 l 329 0 l 248 0 l 248 376 l 0 833 l 86 833 l 280 469 l 298 469 l 494 833 l 579 833 "},"\"":{"x_min":73.609375,"x_max":355.578125,"ha":515,"o":"m 355 718 l 347 641 l 273 641 l 283 736 l 283 909 l 355 909 l 355 718 m 155 718 l 147 641 l 73 641 l 83 736 l 83 909 l 155 909 l 155 718 "},"‹":{"x_min":66.671875,"x_max":334.75,"ha":556,"o":"m 334 166 l 252 143 l 66 343 l 66 372 l 252 573 l 334 548 l 166 373 l 166 343 l 334 166 "},"˙":{"x_min":36.109375,"x_max":122.234375,"ha":286,"o":"m 122 751 l 36 751 l 36 840 l 122 840 l 122 751 "},"ê":{"x_min":27.78125,"x_max":504.203125,"ha":657,"o":"m 430 138 l 431 141 l 502 116 q 484 86 501 112 q 423 19 450 38 q 338 -6 388 -6 l 197 -6 q 111 19 145 -6 q 48 86 81 40 q 27 159 27 116 l 27 437 q 48 511 27 480 q 111 577 81 556 q 197 604 145 604 l 336 604 q 422 577 387 604 q 484 511 451 556 q 504 437 504 481 l 504 272 l 102 272 l 102 162 q 106 138 102 147 q 173 70 130 95 q 197 65 183 65 l 341 65 q 366 70 356 65 q 430 138 405 93 m 106 458 q 102 434 102 450 l 102 344 l 429 344 l 429 434 q 426 458 429 452 q 359 526 402 501 q 334 531 350 531 l 197 531 q 173 526 183 531 q 106 458 130 501 m 470 745 l 468 744 l 370 744 l 286 836 l 243 836 l 158 744 l 59 744 l 56 745 l 215 909 l 312 909 l 470 745 "},"Ï":{"x_min":-64.328125,"x_max":224.59375,"ha":319,"o":"m 122 0 l 40 0 l 40 833 l 122 833 l 122 0 m 224 944 l 138 944 l 138 1033 l 224 1033 l 224 944 m 21 944 l -64 944 l -64 1033 l 21 1033 l 21 944 "},"„":{"x_min":73.609375,"x_max":355.578125,"ha":515,"o":"m 355 718 l 347 641 l 273 641 l 283 736 l 283 909 l 355 909 l 355 718 m 155 718 l 147 641 l 73 641 l 83 736 l 83 909 l 155 909 l 155 718 "},"Â":{"x_min":-34.71875,"x_max":648.65625,"ha":753,"o":"m 562 0 l 500 193 l 113 193 l 50 0 l -34 0 l 244 836 l 369 836 l 648 0 l 562 0 m 138 270 l 475 270 l 315 754 l 297 754 l 138 270 m 514 942 l 512 941 l 414 941 l 330 1033 l 287 1033 l 202 941 l 103 941 l 100 942 l 259 1106 l 356 1106 l 514 942 "},"Í":{"x_min":-19.546875,"x_max":234.640625,"ha":319,"o":"m 122 0 l 40 0 l 40 833 l 122 833 l 122 0 m 234 1109 l 59 920 l -19 945 l 131 1109 l 234 1109 "},"´":{"x_min":144.453125,"x_max":398.640625,"ha":515,"o":"m 398 909 l 223 720 l 144 745 l 295 909 l 398 909 "},"ì":{"x_min":-112.828125,"x_max":141.359375,"ha":286,"o":"m 115 0 l 40 0 l 40 597 l 115 597 l 115 0 m 141 745 l 62 720 l -112 909 l -10 909 l 141 745 "},"±":{"x_min":0,"x_max":0,"ha":695},"Ú":{"x_min":40.28125,"x_max":593.109375,"ha":743,"o":"m 593 179 q 576 112 593 138 q 531 61 563 94 q 481 16 500 27 q 411 -5 447 -5 l 225 -5 q 152 16 187 -5 q 102 61 134 27 q 58 112 70 94 q 40 179 40 140 l 40 833 l 122 833 l 122 181 q 127 163 122 175 q 168 113 140 140 q 213 77 195 86 q 231 73 219 73 l 404 73 q 422 77 416 73 q 466 113 438 86 q 506 163 494 140 q 512 181 512 175 l 512 833 l 593 833 l 593 179 m 442 1110 l 267 921 l 188 946 l 339 1110 l 442 1110 "},"|":{"x_min":0,"x_max":73.609375,"ha":210,"o":"m 73 -130 l 0 -130 l 0 950 l 73 950 l 73 -130 "},"§":{"x_min":27.703125,"x_max":555.59375,"ha":695,"o":"m 555 406 q 529 322 555 356 q 484 275 513 301 q 552 163 552 240 l 552 145 q 531 77 552 108 q 475 16 501 34 q 390 -9 440 -9 l 191 -9 q 106 16 141 -9 q 45 83 80 36 q 27 113 29 109 l 98 138 l 100 136 q 127 99 106 120 q 163 68 147 77 q 188 62 173 62 l 388 62 q 413 68 404 62 q 473 130 451 88 q 477 148 477 138 l 477 166 q 462 202 477 187 q 425 219 447 218 l 215 230 l 212 230 q 187 231 195 230 q 138 251 163 236 q 63 322 87 288 q 37 406 37 356 l 37 420 q 63 506 37 472 q 105 550 75 522 q 29 665 36 579 l 27 684 q 48 758 26 723 q 105 819 79 801 q 190 845 140 845 l 388 845 q 473 819 438 845 q 534 751 497 802 q 542 740 537 747 q 550 728 547 733 q 554 720 552 723 l 483 697 l 481 700 q 454 736 475 715 q 416 768 433 758 q 391 772 409 772 l 191 772 q 168 768 175 772 q 106 705 127 745 q 102 682 102 697 l 104 663 q 120 627 105 643 q 155 611 134 612 l 358 600 l 393 597 q 455 577 430 594 q 529 506 502 543 q 555 420 555 472 l 555 406 m 483 404 l 483 420 q 477 444 483 434 q 406 519 447 497 q 383 523 398 523 l 209 530 q 186 526 194 530 q 116 448 150 506 q 111 423 111 438 l 111 408 q 116 383 111 393 q 148 341 127 365 q 186 308 169 316 q 209 305 191 305 l 383 295 q 406 300 398 295 q 477 380 443 319 q 483 404 483 390 "},"Ý":{"x_min":0,"x_max":0,"ha":626},"b":{"x_min":27.78125,"x_max":511.15625,"ha":671,"o":"m 490 511 q 511 437 511 479 l 511 159 q 490 86 511 116 q 427 19 456 40 q 343 -6 393 -6 l 234 -6 q 165 22 205 -6 q 111 73 144 37 l 102 0 l 27 0 l 36 98 l 36 838 l 111 838 l 111 525 q 165 575 140 555 q 234 604 205 604 l 343 604 q 427 577 393 604 q 490 511 456 556 m 436 162 l 436 434 q 431 458 436 450 q 366 526 408 502 q 341 531 356 531 l 238 531 q 219 527 227 531 q 113 443 137 484 l 111 437 l 111 159 l 113 154 q 219 69 138 112 q 238 65 227 65 l 341 65 q 366 70 356 65 q 431 138 408 94 q 436 162 436 147 "},"q":{"x_min":27.78125,"x_max":511.15625,"ha":664,"o":"m 48 81 q 27 155 27 113 l 27 433 q 48 506 27 475 q 111 573 81 552 q 195 600 145 600 l 304 600 q 373 570 333 600 q 427 519 394 555 l 436 593 l 511 593 l 502 494 l 502 -245 l 427 -245 l 427 68 q 373 18 398 37 q 304 -11 333 -11 l 195 -11 q 111 15 145 -11 q 48 81 81 36 m 102 430 l 102 158 q 106 134 102 143 q 172 66 130 90 q 197 61 181 61 l 300 61 q 319 65 311 61 q 425 150 401 108 l 427 155 l 427 433 l 425 438 q 319 523 400 480 q 300 527 311 527 l 197 527 q 172 522 181 527 q 106 454 130 498 q 102 430 102 445 "},"Ω":{"x_min":0,"x_max":0,"ha":695},"Ö":{"x_min":40.28125,"x_max":627.828125,"ha":790,"o":"m 627 179 q 609 111 627 138 q 565 59 597 93 q 515 15 533 26 q 443 -6 480 -6 l 223 -6 q 152 15 187 -6 q 102 59 134 26 q 56 111 69 93 q 40 179 40 137 l 40 648 q 56 716 40 690 q 102 768 69 734 q 152 813 134 802 q 223 836 187 836 l 443 836 q 515 813 480 836 q 565 769 533 802 q 609 716 597 736 q 627 648 627 688 l 627 179 m 545 180 l 545 645 q 541 666 545 658 q 501 717 529 690 q 455 752 473 744 q 437 757 448 757 l 230 757 q 212 752 219 757 q 166 717 194 744 q 126 666 138 690 q 120 645 120 655 l 120 180 q 126 162 120 173 q 166 111 138 138 q 212 76 194 84 q 230 72 219 72 l 437 72 q 455 76 450 72 q 501 111 473 84 q 541 162 529 138 q 545 180 545 170 m 477 934 l 391 934 l 391 1023 l 477 1023 l 477 934 m 274 934 l 188 934 l 188 1023 l 274 1023 l 274 934 "},"ﬂ":{"x_min":0,"x_max":0,"ha":668},"z":{"x_min":30.5625,"x_max":463.921875,"ha":603,"o":"m 463 0 l 41 0 l 41 66 l 347 522 l 30 522 l 30 597 l 448 597 l 448 529 l 144 75 l 463 75 l 463 0 "},"™":{"x_min":41.671875,"x_max":704.21875,"ha":853,"o":"m 704 441 l 643 441 l 643 758 l 550 587 l 504 587 l 420 758 l 420 441 l 359 441 l 359 836 l 451 836 l 527 679 l 611 836 l 704 836 l 704 441 m 309 775 l 211 775 l 211 441 l 148 441 l 148 775 l 41 775 l 41 836 l 309 836 l 309 775 "},"ã":{"x_min":0,"x_max":493.09375,"ha":653,"o":"m 493 -1 l 418 -1 l 409 68 q 356 20 384 41 q 288 -8 316 -8 l 166 -8 q 81 18 116 -8 q 20 83 54 38 q 0 156 0 113 l 0 184 q 20 258 0 227 q 81 323 54 302 q 166 350 116 350 l 408 350 l 408 434 q 405 456 408 451 q 338 525 381 500 q 313 530 329 530 l 183 530 q 159 525 169 530 q 119 487 145 518 l 94 456 l 93 455 l 22 479 q 26 486 23 481 q 34 498 29 491 q 41 509 38 505 q 101 577 80 562 q 187 602 134 602 l 315 602 q 401 576 366 602 q 463 511 433 554 q 483 436 483 481 l 483 97 l 493 -1 m 304 68 q 409 152 386 111 l 409 277 l 168 277 q 143 272 152 277 q 79 205 102 250 q 75 183 75 197 l 75 158 q 79 136 75 144 q 143 69 102 91 q 168 63 152 63 l 284 63 q 304 68 295 63 m 440 794 l 369 777 q 304 812 355 819 l 202 787 q 109 799 154 775 q 51 872 65 823 l 122 888 q 187 854 136 847 l 288 879 q 381 867 337 891 q 440 794 426 843 "},"æ":{"x_min":0,"x_max":905.625,"ha":1045,"o":"m 905 279 l 491 279 l 491 166 l 491 162 q 494 145 491 150 q 561 77 518 102 q 586 72 570 72 l 743 72 q 768 77 758 72 q 804 109 784 87 q 832 145 825 130 l 833 148 l 904 123 q 900 115 902 120 q 892 104 897 111 q 884 93 887 97 q 825 26 848 43 q 740 0 790 0 l 584 0 q 498 26 533 0 q 454 70 477 43 q 408 26 433 45 q 323 0 373 0 l 295 0 l 173 0 l 166 0 q 81 26 116 0 q 48 57 68 36 q 20 91 29 79 q 0 163 0 122 l 0 193 q 20 265 0 233 q 48 299 29 277 q 81 330 68 320 q 166 356 116 356 l 416 356 l 416 443 l 416 448 q 412 465 416 458 q 347 533 388 509 q 322 538 337 538 l 183 537 q 159 533 166 537 q 122 502 143 523 q 94 465 101 480 l 93 462 l 23 486 q 41 516 25 490 q 102 584 79 568 q 187 611 137 611 l 323 611 q 408 584 373 611 q 454 538 430 568 q 498 583 477 566 q 584 609 533 609 l 737 609 q 822 583 787 609 q 884 518 854 561 q 905 443 905 486 l 905 279 m 830 351 l 830 441 q 826 463 830 455 q 761 531 802 508 q 736 537 751 537 l 586 537 q 561 531 570 537 q 494 463 518 506 q 491 448 491 459 l 491 444 l 491 351 l 830 351 m 416 169 l 416 284 l 168 284 q 143 279 152 284 q 79 213 101 255 q 75 190 75 205 l 75 166 q 79 143 75 151 q 143 77 101 101 q 168 72 145 76 l 322 72 q 347 77 337 72 q 412 145 388 101 q 416 169 416 154 "},"®":{"x_min":27.78125,"x_max":736.171875,"ha":889,"o":"m 736 184 q 718 118 736 145 q 673 66 705 100 q 623 22 641 33 q 551 0 588 0 l 209 0 q 138 22 173 0 q 88 66 120 33 q 44 118 56 100 q 27 184 27 144 l 27 655 q 44 722 27 695 q 88 775 56 741 q 138 820 120 809 q 209 843 173 843 l 551 843 q 623 820 588 843 q 673 775 641 809 q 718 722 705 741 q 736 655 736 694 l 736 184 m 659 652 q 654 673 659 662 q 611 725 641 695 q 562 763 580 755 q 544 768 555 768 l 216 768 q 198 763 205 768 q 150 726 180 755 q 108 673 120 697 q 104 652 104 665 l 104 187 q 108 169 104 177 q 150 115 120 145 q 198 77 180 86 q 216 73 204 73 l 544 73 q 562 77 555 73 q 611 115 580 86 q 654 169 641 145 q 658 187 658 177 l 659 652 m 576 494 q 556 420 576 450 q 487 356 544 400 q 443 336 469 343 l 536 173 l 455 173 l 366 330 l 283 330 l 283 173 l 206 173 l 206 676 l 404 676 q 487 650 452 676 q 525 614 501 638 q 556 579 550 590 q 576 509 576 550 l 576 494 m 502 494 l 502 509 q 498 531 502 523 q 429 597 479 569 q 404 602 419 602 l 283 602 l 283 404 l 404 404 q 429 409 419 404 q 498 470 481 438 q 502 494 502 479 "},"É":{"x_min":40.28125,"x_max":518.09375,"ha":696,"o":"m 518 0 l 40 0 l 40 833 l 518 833 l 518 754 l 120 754 l 120 455 l 518 455 l 518 376 l 120 376 l 120 79 l 518 79 l 518 0 m 430 1108 l 255 919 l 176 944 l 327 1108 l 430 1108 "},"~":{"x_min":51.390625,"x_max":440.3125,"ha":642,"o":"m 440 794 l 369 777 q 304 812 355 819 l 202 787 q 109 799 154 775 q 51 872 65 823 l 122 888 q 187 854 136 847 l 288 879 q 381 867 337 891 q 440 794 426 843 "},"³":{"x_min":4.171875,"x_max":350.03125,"ha":421,"o":"m 350 554 q 331 500 350 523 q 276 451 319 483 q 206 429 248 429 l 144 429 q 80 447 109 429 q 56 463 69 454 q 29 484 44 472 q 4 505 13 497 l 50 550 q 123 497 122 498 q 141 494 127 494 l 204 494 q 226 498 218 494 q 280 540 272 525 q 284 552 284 550 l 283 566 q 280 578 281 573 q 274 588 279 583 q 268 594 269 593 q 256 600 266 595 q 245 605 247 604 l 134 605 l 134 663 l 245 663 q 252 667 248 665 q 257 670 255 669 q 262 672 259 670 q 267 675 265 675 q 271 678 269 676 q 275 682 273 680 q 277 686 276 684 q 280 691 279 688 q 282 697 281 694 q 283 704 283 700 l 284 715 q 280 729 286 719 q 226 772 270 747 q 204 776 218 776 l 141 776 q 123 772 130 776 q 50 719 122 770 l 4 765 q 80 820 59 808 q 144 840 112 840 l 206 840 q 276 816 245 840 q 331 770 323 780 q 350 718 350 747 l 350 695 q 326 633 350 654 q 350 575 350 609 l 350 554 "},"¡":{"x_min":41.671875,"x_max":136.125,"ha":304,"o":"m 136 730 l 41 730 l 41 827 l 136 827 l 136 730 m 126 0 l 50 0 l 50 584 l 126 584 l 126 0 "},"[":{"x_min":27.78125,"x_max":243.078125,"ha":410,"o":"m 243 0 l 27 0 l 27 833 l 243 833 l 243 762 l 108 762 l 108 70 l 243 70 l 243 0 "},"L":{"x_min":40.28125,"x_max":509.765625,"ha":632,"o":"m 509 0 l 40 0 l 40 833 l 120 833 l 120 79 l 509 79 l 509 0 "}," ":{"x_min":0,"x_max":0,"ha":375},"∑":{"x_min":0,"x_max":0,"ha":695},"%":{"x_min":41.671875,"x_max":809.78125,"ha":935,"o":"m 390 594 q 372 527 390 555 q 308 462 347 491 q 230 438 276 438 l 200 438 q 123 462 155 438 q 59 527 84 491 q 41 594 41 555 l 41 698 q 59 765 41 737 q 90 800 68 776 q 123 833 112 825 q 200 857 155 857 l 230 857 q 308 833 276 857 q 341 800 319 825 q 372 765 363 776 q 390 698 390 737 l 390 594 m 322 593 l 322 701 q 319 722 322 716 q 289 757 311 737 q 252 786 268 777 q 230 790 244 790 l 201 790 q 179 786 187 790 q 142 757 163 777 q 112 722 120 737 q 108 701 108 713 l 108 593 q 112 572 108 580 q 142 536 120 556 q 179 508 163 516 q 201 504 187 504 l 230 504 q 252 508 244 504 q 289 536 268 516 q 319 572 311 556 q 322 593 322 577 m 690 855 l 243 0 l 155 0 l 604 855 l 690 855 m 809 156 q 791 90 809 118 q 727 23 763 51 q 651 0 695 0 l 620 0 q 543 23 575 0 q 480 90 509 48 q 461 156 461 120 l 461 261 q 480 327 461 297 q 543 394 509 369 q 620 418 575 418 l 651 418 q 727 394 695 418 q 791 327 763 366 q 809 261 809 300 l 809 156 m 743 154 l 743 262 q 738 283 743 275 q 709 318 730 298 q 672 347 687 338 q 650 352 661 352 l 622 352 q 600 347 611 352 q 561 318 583 337 q 531 283 540 298 q 529 262 529 277 l 529 154 q 531 133 529 138 q 561 98 540 118 q 600 69 583 79 q 622 65 608 65 l 650 65 q 672 70 661 65 q 709 99 688 80 q 738 133 730 118 q 743 154 743 141 "},"P":{"x_min":40.28125,"x_max":588.9375,"ha":725,"o":"m 588 538 q 568 466 588 497 q 536 430 561 455 q 497 394 511 405 q 415 368 462 368 l 120 368 l 120 0 l 40 0 l 40 833 l 415 833 q 497 807 462 833 q 536 770 511 795 q 568 733 561 744 q 588 661 588 702 l 588 538 m 506 541 l 506 658 q 502 682 506 673 q 437 750 479 726 q 413 754 430 754 l 120 754 l 120 447 l 413 447 q 437 452 427 447 q 502 518 480 477 q 506 541 506 526 "},"∏":{"x_min":0,"x_max":0,"ha":695},"À":{"x_min":-34.71875,"x_max":648.65625,"ha":753,"o":"m 562 0 l 500 193 l 113 193 l 50 0 l -34 0 l 244 836 l 369 836 l 648 0 l 562 0 m 138 270 l 475 270 l 315 754 l 297 754 l 138 270 m 430 944 l 351 919 l 176 1108 l 278 1108 l 430 944 "},"_":{"x_min":20.828125,"x_max":523.65625,"ha":628,"o":"m 523 -91 l 20 -91 l 20 -23 l 523 -23 l 523 -91 "},"ñ":{"x_min":27.78125,"x_max":504.203125,"ha":668,"o":"m 504 0 l 429 0 l 429 434 q 426 458 429 452 q 359 526 402 501 q 334 531 350 531 l 236 531 q 216 527 225 531 q 112 444 138 486 l 112 0 l 37 0 l 37 498 l 27 598 l 102 598 l 111 527 q 162 575 138 558 q 231 604 202 604 l 336 604 q 422 577 387 604 q 484 511 451 556 q 504 437 504 481 l 504 0 m 472 794 l 401 777 q 336 812 387 819 l 234 787 q 141 799 186 775 q 83 872 97 823 l 154 888 q 219 854 168 847 l 320 879 q 413 867 369 891 q 472 794 458 843 "},"+":{"x_min":50,"x_max":538.9375,"ha":726,"o":"m 538 309 l 330 309 l 330 101 l 258 101 l 258 309 l 50 309 l 50 381 l 258 381 l 258 590 l 330 590 l 330 381 l 538 381 l 538 309 "},"‚":{"x_min":73.609375,"x_max":155.5625,"ha":315,"o":"m 155 718 l 147 641 l 73 641 l 83 736 l 83 909 l 155 909 l 155 718 "},"½":{"x_min":63.890625,"x_max":827.9375,"ha":914,"o":"m 827 272 q 750 183 830 208 l 586 131 q 555 87 555 116 l 555 69 l 825 69 l 825 4 l 488 4 l 488 93 q 569 194 488 170 l 722 241 q 732 246 725 243 q 741 251 738 250 q 749 256 744 252 q 756 263 754 259 q 759 271 758 266 q 761 281 761 276 l 761 291 q 758 304 761 298 q 704 345 750 319 q 682 350 695 350 l 619 350 q 601 347 605 350 q 526 295 586 338 l 481 338 q 556 395 555 394 q 622 415 588 415 l 684 415 q 754 391 723 415 q 808 344 795 359 q 826 294 825 323 l 827 272 m 676 838 l 237 0 l 152 0 l 591 838 l 676 838 m 281 429 l 63 429 l 63 486 l 145 486 l 145 782 l 63 782 l 63 840 l 202 840 l 202 486 l 281 486 l 281 429 "},"Æ":{"x_min":-34.71875,"x_max":669.5,"ha":843,"o":"m 669 1 l 393 1 l 393 0 l 329 0 l 329 1 l 316 1 l 316 191 l 113 191 l 51 0 l -34 0 l 244 834 l 370 834 l 370 833 l 669 833 l 669 754 l 397 754 l 397 455 l 669 455 l 669 376 l 397 376 l 397 80 l 669 80 l 669 1 m 316 752 l 298 752 l 138 270 l 315 270 l 316 752 "},"Ë":{"x_min":40.28125,"x_max":518.09375,"ha":696,"o":"m 518 0 l 40 0 l 40 833 l 518 833 l 518 754 l 120 754 l 120 455 l 518 455 l 518 376 l 120 376 l 120 79 l 518 79 l 518 0 m 441 937 l 355 937 l 355 1026 l 441 1026 l 441 937 m 238 937 l 152 937 l 152 1026 l 238 1026 l 238 937 "},"'":{"x_min":73.609375,"x_max":155.5625,"ha":315,"o":"m 155 718 l 147 641 l 73 641 l 83 736 l 83 909 l 155 909 l 155 718 "},"ª":{"x_min":41.671875,"x_max":363.921875,"ha":517,"o":"m 363 448 l 304 448 l 294 487 q 272 466 284 476 q 230 447 245 447 l 162 447 q 109 465 134 447 q 58 520 77 488 q 41 583 41 544 l 41 701 q 58 763 41 740 q 109 818 76 793 q 184 840 140 840 l 350 840 l 350 531 l 363 448 m 288 559 l 288 780 l 183 780 q 162 776 170 780 q 106 718 129 757 q 102 698 102 709 l 102 586 q 106 566 102 575 q 162 508 129 527 q 183 504 170 504 l 209 504 q 227 506 223 504 q 288 559 250 518 "},"Œ":{"x_min":40.28125,"x_max":720.890625,"ha":857,"o":"m 720 0 l 223 0 q 201 6 216 2 q 173 13 186 9 q 152 22 161 16 q 102 66 134 33 q 56 118 69 100 q 40 186 40 144 l 40 655 q 56 713 40 687 q 102 766 69 732 q 152 811 134 800 q 173 820 161 816 q 201 827 186 823 q 223 833 216 830 l 720 833 l 720 754 l 462 754 l 462 455 l 720 455 l 720 376 l 462 376 l 462 79 l 720 79 l 720 0 m 370 79 l 370 752 l 230 752 q 212 748 219 752 q 126 673 151 718 q 120 652 120 662 l 120 187 q 126 169 120 180 q 166 118 138 145 q 212 83 194 91 q 230 79 219 79 l 370 79 "},"˛":{"x_min":201.40625,"x_max":356.96875,"ha":564,"o":"m 356 -244 l 272 -244 l 201 -90 l 275 -63 l 356 -244 "},"ð":{"x_min":0,"x_max":0,"ha":645},"T":{"x_min":-13.890625,"x_max":541.703125,"ha":653,"o":"m 541 757 l 302 757 l 302 0 l 223 0 l 223 757 l -13 757 l -13 833 l 541 833 l 541 757 "},"j":{"x_min":-125.015625,"x_max":137.515625,"ha":290,"o":"m 137 751 l 51 751 l 51 840 l 137 840 l 137 751 m 130 -73 q 109 -147 130 -115 q 47 -213 76 -193 q -37 -238 13 -238 l -125 -238 l -125 -166 l -38 -166 q -13 -162 -20 -166 q 21 -132 2 -152 q 50 -94 40 -112 q 54 -70 54 -86 l 54 597 l 129 597 l 130 -73 "},"1":{"x_min":75,"x_max":544.484375,"ha":700,"o":"m 544 0 l 75 0 l 75 79 l 276 79 l 276 754 l 130 754 l 130 834 l 356 834 l 356 79 l 544 79 l 544 0 "},"›":{"x_min":69.453125,"x_max":337.53125,"ha":556,"o":"m 337 343 l 151 143 l 69 166 l 237 343 l 237 373 l 69 548 l 151 573 l 337 372 l 337 343 "},"ı":{"x_min":40.28125,"x_max":115.28125,"ha":286,"o":"m 115 0 l 40 0 l 40 597 l 115 597 l 115 0 "},"ä":{"x_min":0,"x_max":493.09375,"ha":653,"o":"m 493 -1 l 418 -1 l 409 68 q 356 20 384 41 q 288 -8 316 -8 l 166 -8 q 81 18 116 -8 q 20 83 54 38 q 0 156 0 113 l 0 184 q 20 258 0 227 q 81 323 54 302 q 166 350 116 350 l 408 350 l 408 434 q 405 456 408 451 q 338 525 381 500 q 313 530 329 530 l 183 530 q 159 525 169 530 q 119 487 145 518 l 94 456 l 93 455 l 22 479 q 26 486 23 481 q 34 498 29 491 q 41 509 38 505 q 101 577 80 562 q 187 602 134 602 l 315 602 q 401 576 366 602 q 463 511 433 554 q 483 436 483 481 l 483 97 l 493 -1 m 304 68 q 409 152 386 111 l 409 277 l 168 277 q 143 272 152 277 q 79 205 102 250 q 75 183 75 197 l 75 158 q 79 136 75 144 q 143 69 102 91 q 168 63 152 63 l 284 63 q 304 68 295 63 m 405 752 l 319 752 l 319 841 l 405 841 l 405 752 m 202 752 l 116 752 l 116 841 l 202 841 l 202 752 "},"<":{"x_min":-13.890625,"x_max":843.125,"ha":996,"o":"m 843 381 l 134 381 l 134 368 l 504 0 l 404 0 l -13 418 l 404 837 l 504 837 l 134 469 l 134 455 l 843 455 l 843 381 "},"£":{"x_min":30.5625,"x_max":655.609375,"ha":810,"o":"m 655 165 q 626 111 641 133 q 538 23 580 50 q 468 1 504 1 l 87 1 l 87 226 l 30 226 l 30 297 l 87 297 l 87 379 l 30 379 l 30 451 l 87 451 l 87 648 q 104 715 87 688 q 148 768 116 734 q 198 812 180 801 q 269 834 233 834 l 444 834 l 444 755 l 276 755 q 258 751 263 755 q 212 716 240 743 q 172 665 184 688 q 169 612 169 659 l 169 451 l 498 451 l 498 379 l 169 379 l 169 297 l 498 297 l 498 226 l 169 226 l 169 80 l 463 80 q 483 84 477 80 q 529 120 502 94 q 568 170 555 147 q 577 188 572 176 l 655 165 "},"¹":{"x_min":13.890625,"x_max":231.96875,"ha":421,"o":"m 231 429 l 13 429 l 13 486 l 95 486 l 95 782 l 13 782 l 13 840 l 152 840 l 152 486 l 231 486 l 231 429 "},"t":{"x_min":-13.890625,"x_max":343.078125,"ha":468,"o":"m 343 527 l 159 527 l 159 169 q 163 143 159 151 q 226 77 186 100 q 254 72 236 72 l 341 72 l 341 0 l 252 0 q 168 26 202 0 q 105 93 138 47 q 84 166 84 123 l 84 527 l -13 527 l -13 600 l 84 600 l 84 840 l 159 840 l 159 600 l 343 600 l 343 527 "},"¬":{"x_min":0,"x_max":0,"ha":833},"ù":{"x_min":22.21875,"x_max":498.65625,"ha":658,"o":"m 498 -1 l 423 -1 l 415 69 q 363 22 387 38 q 294 -6 323 -6 l 190 -6 q 104 19 138 -6 q 41 86 75 40 q 22 159 22 115 l 22 597 l 97 597 l 97 162 q 100 138 97 144 q 166 70 123 95 q 191 65 176 65 l 290 65 q 309 69 301 65 q 413 152 387 111 l 413 597 l 488 597 l 488 98 l 498 -1 m 358 745 l 279 720 l 104 909 l 206 909 l 358 745 "},"W":{"x_min":-13.890625,"x_max":915.34375,"ha":1024,"o":"m 915 834 l 734 0 l 619 0 l 450 726 l 286 0 l 170 0 l -13 834 l 69 834 l 225 87 l 233 87 l 397 834 l 501 834 l 672 87 l 680 87 l 829 834 l 915 834 "},"ï":{"x_min":-65.328125,"x_max":223.59375,"ha":286,"o":"m 115 0 l 40 0 l 40 597 l 115 597 l 115 0 m 223 752 l 137 752 l 137 841 l 223 841 l 223 752 m 20 752 l -65 752 l -65 841 l 20 841 l 20 752 "},">":{"x_min":0,"x_max":857.015625,"ha":996,"o":"m 857 418 l 438 0 l 338 0 l 708 368 l 708 381 l 0 381 l 0 455 l 708 455 l 708 469 l 338 837 l 438 837 l 857 418 "},"v":{"x_min":-20.828125,"x_max":475.03125,"ha":593,"o":"m 231 76 l 395 597 l 475 597 l 280 0 l 176 0 l -20 597 l 59 597 l 223 76 l 231 76 "},"û":{"x_min":22.21875,"x_max":498.65625,"ha":658,"o":"m 498 -1 l 423 -1 l 415 69 q 363 22 387 38 q 294 -6 323 -6 l 190 -6 q 104 19 138 -6 q 41 86 75 40 q 22 159 22 115 l 22 597 l 97 597 l 97 162 q 100 138 97 144 q 166 70 123 95 q 191 65 176 65 l 290 65 q 309 69 301 65 q 413 152 387 111 l 413 597 l 488 597 l 488 98 l 498 -1 m 459 745 l 457 744 l 359 744 l 275 836 l 232 836 l 147 744 l 48 744 l 45 745 l 204 909 l 301 909 l 459 745 "},"Ò":{"x_min":40.28125,"x_max":627.828125,"ha":790,"o":"m 627 179 q 609 111 627 138 q 565 59 597 93 q 515 15 533 26 q 443 -6 480 -6 l 223 -6 q 152 15 187 -6 q 102 59 134 26 q 56 111 69 93 q 40 179 40 137 l 40 648 q 56 716 40 690 q 102 768 69 734 q 152 813 134 802 q 223 836 187 836 l 443 836 q 515 813 480 836 q 565 769 533 802 q 609 716 597 736 q 627 648 627 688 l 627 179 m 545 180 l 545 645 q 541 666 545 658 q 501 717 529 690 q 455 752 473 744 q 437 757 448 757 l 230 757 q 212 752 219 757 q 166 717 194 744 q 126 666 138 690 q 120 645 120 655 l 120 180 q 126 162 120 173 q 166 111 138 138 q 212 76 194 84 q 230 72 219 72 l 437 72 q 455 76 450 72 q 501 111 473 84 q 541 162 529 138 q 545 180 545 170 m 455 946 l 376 921 l 201 1110 l 303 1110 l 455 946 "},"&":{"x_min":9.71875,"x_max":594.484375,"ha":785,"o":"m 594 287 l 552 287 l 552 170 q 531 100 552 130 q 500 62 525 88 q 462 26 476 36 q 377 0 427 0 l 181 0 q 100 26 134 0 q 61 62 86 36 q 30 100 37 88 q 9 170 9 130 l 9 290 q 30 362 9 330 q 84 420 44 383 q 30 479 44 458 q 9 552 9 511 l 9 665 q 30 738 9 707 q 61 775 37 750 q 100 811 86 800 q 181 838 137 838 l 284 838 q 356 816 322 838 q 441 727 391 794 q 473 673 463 695 l 394 651 l 384 669 q 345 719 372 693 q 301 755 319 745 q 280 759 294 759 l 183 759 q 161 754 170 759 q 94 686 118 729 q 90 662 90 677 l 90 555 q 94 531 90 540 q 161 463 118 488 q 183 458 170 458 l 331 459 l 331 381 l 183 381 q 161 376 170 381 q 94 309 116 351 q 90 287 90 301 l 90 173 q 94 151 90 159 q 161 84 116 109 q 183 79 170 79 l 377 79 q 401 84 391 79 q 468 151 445 109 q 472 173 472 159 l 472 369 l 594 369 l 594 287 "},"˝":{"x_min":76.390625,"x_max":519.484375,"ha":515,"o":"m 519 909 l 344 720 l 265 745 l 416 909 l 519 909 m 330 909 l 155 720 l 76 745 l 227 909 l 330 909 "},"Ð":{"x_min":0,"x_max":0,"ha":761},"I":{"x_min":40.28125,"x_max":122.234375,"ha":300,"o":"m 122 0 l 40 0 l 40 833 l 122 833 l 122 0 "},"G":{"x_min":40.28125,"x_max":644.5,"ha":808,"o":"m 644 2 l 568 2 l 558 69 q 509 22 522 29 q 438 0 475 0 l 225 0 q 152 22 187 0 q 102 66 134 33 q 58 118 70 100 q 40 184 40 145 l 40 654 q 58 722 40 694 q 102 775 70 741 q 152 819 134 808 q 225 841 187 841 l 438 841 q 511 819 476 841 q 597 730 548 795 q 627 677 618 701 l 548 654 l 538 672 q 500 722 526 695 q 454 758 473 748 q 434 762 447 762 l 230 762 q 212 758 219 762 q 166 722 194 750 q 126 672 138 695 q 122 651 122 663 l 122 187 q 126 169 122 177 q 166 118 138 145 q 212 83 194 91 q 231 79 219 79 l 431 79 q 450 83 444 79 q 497 120 468 93 q 538 169 526 147 q 543 187 543 177 l 543 381 l 352 381 l 352 461 l 623 461 l 623 166 q 644 2 623 115 "},"`":{"x_min":104.171875,"x_max":358.359375,"ha":515,"o":"m 358 745 l 279 720 l 104 909 l 206 909 l 358 745 "},"·":{"x_min":105.5625,"x_max":213.90625,"ha":404,"o":"m 213 294 l 105 294 l 105 402 l 213 402 l 213 294 "},"r":{"x_min":27.78125,"x_max":466.703125,"ha":578,"o":"m 466 480 l 397 456 l 395 458 l 369 488 q 330 526 344 519 q 305 531 320 531 l 237 531 q 216 527 225 531 q 112 443 136 484 l 111 441 l 111 0 l 36 0 l 36 498 l 27 598 l 102 598 l 111 527 q 163 576 151 568 q 233 604 202 604 l 302 604 q 387 577 352 604 q 448 511 413 558 q 466 480 465 484 "},"¿":{"x_min":31.953125,"x_max":563.9375,"ha":632,"o":"m 348 722 l 241 722 l 241 829 l 348 829 l 348 722 m 563 155 q 533 101 552 127 q 447 13 487 38 q 375 -8 412 -8 l 205 -8 q 120 18 155 -8 q 82 54 106 27 q 51 91 58 80 q 31 163 31 120 l 31 259 q 118 390 31 345 l 211 438 q 254 504 254 461 l 254 593 l 336 593 l 336 497 q 247 368 336 415 l 154 318 q 112 255 112 295 l 111 166 q 115 143 111 151 q 181 76 137 101 q 206 70 191 70 l 372 70 q 391 75 386 70 q 436 111 409 84 q 476 161 462 137 q 486 177 480 165 l 563 155 "},"ý":{"x_min":0,"x_max":0,"ha":582},"x":{"x_min":-13.890625,"x_max":472.265625,"ha":597,"o":"m 383 0 l 229 243 l 75 0 l -13 0 l 184 306 l -6 595 l 84 595 l 229 365 l 369 595 l 461 595 l 273 306 l 472 0 l 383 0 "},"è":{"x_min":27.78125,"x_max":504.203125,"ha":657,"o":"m 430 138 l 431 141 l 502 116 q 484 86 501 112 q 423 19 450 38 q 338 -6 388 -6 l 197 -6 q 111 19 145 -6 q 48 86 81 40 q 27 159 27 116 l 27 437 q 48 511 27 480 q 111 577 81 556 q 197 604 145 604 l 336 604 q 422 577 387 604 q 484 511 451 556 q 504 437 504 481 l 504 272 l 102 272 l 102 162 q 106 138 102 147 q 173 70 130 95 q 197 65 183 65 l 341 65 q 366 70 356 65 q 430 138 405 93 m 106 458 q 102 434 102 450 l 102 344 l 429 344 l 429 434 q 426 458 429 452 q 359 526 402 501 q 334 531 350 531 l 197 531 q 173 526 183 531 q 106 458 130 501 m 358 745 l 279 720 l 104 909 l 206 909 l 358 745 "},"º":{"x_min":41.671875,"x_max":390.3125,"ha":543,"o":"m 390 594 q 372 527 390 555 q 308 462 347 491 q 230 438 276 438 l 200 438 q 123 462 155 438 q 59 527 84 491 q 41 594 41 555 l 41 698 q 59 765 41 737 q 90 800 68 776 q 123 833 112 825 q 200 857 155 857 l 230 857 q 308 833 276 857 q 341 800 319 825 q 372 765 363 776 q 390 698 390 737 l 390 594 m 322 593 l 322 701 q 319 722 322 716 q 289 757 311 737 q 252 786 268 777 q 230 790 244 790 l 201 790 q 179 786 187 790 q 142 757 163 777 q 112 722 120 737 q 108 701 108 713 l 108 593 q 112 572 108 580 q 142 536 120 556 q 179 508 163 516 q 201 504 187 504 l 230 504 q 252 508 244 504 q 289 536 268 516 q 319 572 311 556 q 322 593 322 577 "},"Ø":{"x_min":5.5625,"x_max":607,"ha":771,"o":"m 607 179 q 588 111 607 138 q 545 59 576 91 q 495 15 513 26 q 423 -6 461 -6 l 187 -6 q 133 6 161 -6 l 108 -41 l 19 -41 l 70 55 q 22 111 36 90 q 5 179 5 137 l 5 648 q 22 716 5 690 q 66 769 34 736 q 116 813 98 802 q 187 836 151 836 l 423 836 q 477 823 445 836 l 498 862 l 586 862 l 538 775 q 588 716 576 737 q 607 648 607 688 l 607 179 m 525 180 l 525 645 q 520 666 525 658 q 498 697 512 682 l 172 79 q 173 77 172 77 q 176 76 175 77 q 194 72 183 72 l 418 72 q 436 76 430 72 q 480 111 452 84 q 520 162 508 138 q 525 180 525 170 m 438 750 l 436 752 q 418 757 431 757 l 194 757 q 176 752 183 757 q 131 717 158 744 q 91 666 104 690 q 86 645 86 655 l 86 180 q 91 162 86 173 q 112 133 100 147 l 438 750 "},"∞":{"x_min":0,"x_max":0,"ha":1111},"μ":{"x_min":0,"x_max":0,"ha":643},"÷":{"x_min":0,"x_max":0,"ha":600},"h":{"x_min":27.78125,"x_max":494.484375,"ha":658,"o":"m 494 0 l 419 0 l 419 433 q 415 456 419 448 q 350 525 391 501 q 325 530 340 530 l 230 530 q 209 526 218 530 q 105 441 129 483 l 104 438 l 102 436 l 102 0 l 27 0 l 27 837 l 102 837 l 102 523 q 156 573 131 554 q 226 602 197 602 l 326 602 q 411 576 376 602 q 473 509 440 555 q 494 436 494 477 l 494 0 "},".":{"x_min":105.5625,"x_max":213.90625,"ha":404,"o":"m 213 0 l 105 0 l 105 108 l 213 108 l 213 0 "},";":{"x_min":23.609375,"x_max":193.078125,"ha":410,"o":"m 184 397 l 76 397 l 76 505 l 184 505 l 184 397 m 193 86 l 109 -120 l 23 -120 l 119 112 l 193 86 "},"f":{"x_min":0,"x_max":355.578125,"ha":425,"o":"m 355 768 l 268 768 q 238 763 245 768 q 176 697 200 741 q 173 672 173 691 l 173 597 l 277 597 l 277 525 l 173 525 l 173 0 l 98 0 l 98 525 l 0 525 l 0 597 l 98 597 l 98 675 q 118 748 98 719 q 180 815 151 794 q 266 840 213 840 l 355 840 l 355 768 "},"“":{"x_min":65.28125,"x_max":347.25,"ha":515,"o":"m 347 901 l 337 807 l 337 633 l 265 633 l 265 825 l 273 901 l 347 901 m 147 901 l 137 807 l 137 633 l 65 633 l 65 825 l 73 901 l 147 901 "},"A":{"x_min":-34.71875,"x_max":648.65625,"ha":753,"o":"m 562 0 l 500 193 l 113 193 l 50 0 l -34 0 l 244 836 l 369 836 l 648 0 l 562 0 m 138 270 l 475 270 l 315 754 l 297 754 l 138 270 "},"6":{"x_min":27.78125,"x_max":545.875,"ha":700,"o":"m 545 163 q 525 91 545 122 q 493 54 518 80 q 455 18 469 27 q 373 -8 420 -8 l 200 -8 q 118 18 152 -8 q 79 54 104 27 q 48 91 55 80 q 27 163 27 122 l 27 668 q 48 740 27 708 q 79 777 55 751 q 118 813 104 804 q 200 840 152 840 l 358 840 q 429 819 397 840 q 515 730 466 795 q 545 676 534 704 l 466 654 l 456 672 q 418 721 444 695 q 373 757 393 747 q 352 761 366 761 l 201 761 q 177 757 184 761 q 112 688 136 733 q 108 665 108 680 l 108 447 q 156 493 141 483 q 229 512 187 512 l 373 512 q 455 487 422 512 q 493 452 469 476 q 525 416 518 427 q 545 343 545 386 l 545 163 m 465 165 l 465 341 q 461 363 465 355 q 395 431 437 408 q 372 437 386 437 l 233 437 q 213 433 219 437 q 115 350 141 394 l 108 336 l 108 165 q 112 143 108 151 q 179 76 134 101 q 201 70 188 70 l 372 70 q 395 76 386 70 q 431 105 412 86 q 461 143 451 125 q 465 165 465 151 "},"‘":{"x_min":65.28125,"x_max":147.234375,"ha":315,"o":"m 147 911 l 137 816 l 137 643 l 65 643 l 65 834 l 73 911 l 147 911 "},"π":{"x_min":27.78125,"x_max":736.171875,"ha":889,"o":"m 736 184 q 718 118 736 145 q 673 66 705 100 q 623 22 641 33 q 551 0 588 0 l 209 0 q 138 22 173 0 q 88 66 120 33 q 44 118 56 100 q 27 184 27 144 l 27 655 q 44 722 27 695 q 88 775 56 741 q 138 820 120 809 q 209 843 173 843 l 551 843 q 623 820 588 843 q 673 775 641 809 q 718 722 705 741 q 736 655 736 694 l 736 184 m 659 652 q 654 673 659 662 q 611 725 641 695 q 562 763 580 755 q 544 768 555 768 l 216 768 q 198 763 205 768 q 150 726 180 755 q 108 673 120 697 q 104 652 104 665 l 104 187 q 108 169 104 177 q 150 115 120 145 q 198 77 180 86 q 216 73 204 73 l 544 73 q 562 77 555 73 q 611 115 580 86 q 654 169 641 145 q 658 187 658 177 l 659 652 m 576 494 q 556 420 576 450 q 487 356 544 400 q 443 336 465 338 q 408 330 431 330 l 366 330 l 283 330 l 283 173 l 206 173 l 206 676 l 404 676 q 487 650 452 676 q 525 614 501 638 q 556 579 550 590 q 576 509 576 550 l 576 494 m 502 494 l 502 509 q 498 531 502 523 q 429 597 479 569 q 404 602 419 602 l 283 602 l 283 404 l 404 404 q 429 409 419 404 q 498 470 481 438 q 502 494 502 479 "},"O":{"x_min":40.28125,"x_max":627.828125,"ha":789,"o":"m 627 179 q 609 111 627 138 q 565 59 597 93 q 515 15 533 26 q 443 -6 480 -6 l 223 -6 q 152 15 187 -6 q 102 59 134 26 q 56 111 69 93 q 40 179 40 137 l 40 648 q 56 716 40 690 q 102 768 69 734 q 152 813 134 802 q 223 836 187 836 l 443 836 q 515 813 480 836 q 565 769 533 802 q 609 716 597 736 q 627 648 627 688 l 627 179 m 545 180 l 545 645 q 541 666 545 658 q 501 717 529 690 q 455 752 473 744 q 437 757 448 757 l 230 757 q 212 752 219 757 q 166 717 194 744 q 126 666 138 690 q 120 645 120 655 l 120 180 q 126 162 120 173 q 166 111 138 138 q 212 76 194 84 q 230 72 219 72 l 437 72 q 455 76 450 72 q 501 111 473 84 q 541 162 529 138 q 545 180 545 170 "},"n":{"x_min":27.78125,"x_max":504.203125,"ha":668,"o":"m 504 0 l 429 0 l 429 434 q 426 458 429 452 q 359 526 402 501 q 334 531 350 531 l 236 531 q 216 527 225 531 q 112 444 138 486 l 112 0 l 37 0 l 37 498 l 27 598 l 102 598 l 111 527 q 162 575 138 558 q 231 604 202 604 l 336 604 q 422 577 387 604 q 484 511 451 556 q 504 437 504 481 l 504 0 "},"3":{"x_min":27.78125,"x_max":545.875,"ha":700,"o":"m 545 162 q 525 90 545 122 q 493 52 518 79 q 455 16 469 26 q 373 -9 420 -9 l 215 -9 q 144 12 179 -9 q 58 98 102 38 q 27 154 40 123 l 106 176 l 116 159 q 156 109 130 134 q 200 73 181 83 q 219 69 205 69 l 372 69 q 395 75 386 69 q 431 104 412 84 q 461 141 451 123 q 465 163 465 150 l 465 287 q 461 309 465 301 q 431 347 451 327 q 395 376 412 366 q 373 381 384 381 l 237 381 l 237 459 l 372 459 q 395 463 387 459 q 431 493 412 473 q 461 530 451 512 q 465 554 465 538 l 465 665 q 461 688 465 680 q 395 757 437 733 q 372 761 388 761 l 219 762 q 200 758 205 762 q 155 722 181 748 q 116 672 129 695 q 106 654 112 666 l 27 676 q 58 730 38 704 q 144 819 106 795 q 215 840 176 840 l 373 840 q 455 813 420 840 q 493 777 469 804 q 525 740 518 751 q 545 668 545 708 l 545 551 q 525 479 545 511 q 470 420 511 458 q 525 362 511 383 q 545 290 545 330 l 545 162 "},"9":{"x_min":27.78125,"x_max":547.265625,"ha":700,"o":"m 547 163 q 526 91 547 122 q 495 54 519 80 q 456 18 470 27 q 373 -8 422 -8 l 216 -8 q 145 12 177 -8 q 59 101 108 36 q 27 155 37 133 l 106 177 l 116 159 q 155 109 129 136 q 201 73 181 83 q 222 69 208 69 l 372 70 q 397 75 390 70 q 462 143 438 98 q 466 166 466 151 l 466 390 q 416 344 434 356 q 345 325 386 325 l 201 325 q 118 350 151 325 q 79 385 104 361 q 48 420 55 409 q 27 494 27 452 l 27 668 q 48 740 27 708 q 79 777 55 751 q 118 813 104 804 q 201 840 152 840 l 373 840 q 456 813 422 840 q 495 777 470 804 q 526 740 519 751 q 547 668 547 708 l 547 163 m 466 501 l 466 666 q 462 688 466 680 q 395 755 440 730 q 372 761 386 761 l 202 761 q 177 755 187 761 q 141 726 161 745 q 112 688 122 707 q 108 666 108 680 l 108 495 q 112 473 108 481 q 177 405 136 429 q 202 400 187 400 l 341 400 q 359 404 352 400 q 415 441 383 416 q 459 487 447 465 q 461 490 459 488 q 463 494 462 493 q 465 497 463 495 q 466 501 466 500 "},"l":{"x_min":36.109375,"x_max":120.84375,"ha":285,"o":"m 120 0 l 48 0 q 41 36 47 8 q 36 77 36 63 l 36 837 l 108 837 l 108 94 q 113 44 108 77 q 120 0 119 11 "},"¤":{"x_min":27.78125,"x_max":655.609375,"ha":810,"o":"m 655 155 q 626 101 641 123 q 538 13 580 40 q 468 -8 504 -8 l 270 -8 q 198 13 233 -8 q 148 58 180 25 q 104 109 116 91 q 87 176 87 136 l 87 302 l 27 302 l 27 373 l 87 373 l 87 455 l 27 455 l 27 527 l 87 527 l 87 648 q 104 715 87 688 q 148 768 116 734 q 198 812 180 801 q 269 834 233 834 l 468 834 q 538 812 504 834 q 626 725 580 786 q 655 670 641 702 l 577 647 l 568 665 q 529 715 555 688 q 483 751 502 741 q 463 755 477 755 l 276 755 q 258 751 263 755 q 212 716 240 743 q 172 665 184 688 q 169 612 169 659 l 169 527 l 495 527 l 495 455 l 169 455 l 169 373 l 495 373 l 495 302 l 169 302 l 169 179 q 172 161 169 166 q 212 110 184 137 q 258 75 240 83 q 276 70 263 70 l 463 70 q 483 75 477 70 q 527 111 501 84 q 568 161 554 137 q 577 177 572 165 l 655 155 "},"∂":{"x_min":0,"x_max":0,"ha":695},"4":{"x_min":20.828125,"x_max":581.984375,"ha":700,"o":"m 581 273 l 581 195 l 490 195 l 490 0 l 411 0 l 411 195 l 20 195 l 20 273 l 369 834 l 490 834 l 490 273 l 581 273 m 116 273 l 411 273 l 411 754 l 116 273 "},"p":{"x_min":27.78125,"x_max":511.15625,"ha":671,"o":"m 490 80 q 427 13 456 34 q 343 -12 393 -12 l 234 -12 q 165 16 205 -12 q 111 66 140 36 l 111 -247 l 36 -247 l 36 493 l 27 591 l 102 591 l 111 518 q 165 569 144 554 q 234 598 205 598 l 343 598 q 427 572 393 598 q 490 505 456 551 q 511 431 511 473 l 511 154 q 490 80 511 111 m 436 429 q 431 452 436 444 q 366 520 408 497 q 341 526 356 526 l 238 526 q 219 522 227 526 q 113 437 138 479 l 111 431 l 111 154 l 113 148 q 219 63 137 106 q 238 59 227 59 l 341 59 q 366 65 356 59 q 431 133 408 88 q 436 156 436 141 l 436 429 "},"‡":{"x_min":0,"x_max":0,"ha":542},"à":{"x_min":0,"x_max":493.09375,"ha":653,"o":"m 493 -1 l 418 -1 l 409 68 q 356 20 384 41 q 288 -8 316 -8 l 166 -8 q 81 18 116 -8 q 20 83 54 38 q 0 156 0 113 l 0 184 q 20 258 0 227 q 81 323 54 302 q 166 350 116 350 l 408 350 l 408 434 q 405 456 408 451 q 338 525 381 500 q 313 530 329 530 l 183 530 q 159 525 169 530 q 119 487 145 518 l 94 456 l 93 455 l 22 479 q 26 486 23 481 q 34 498 29 491 q 41 509 38 505 q 101 577 80 562 q 187 602 134 602 l 315 602 q 401 576 366 602 q 463 511 433 554 q 483 436 483 481 l 483 97 l 493 -1 m 304 68 q 409 152 386 111 l 409 277 l 168 277 q 143 272 152 277 q 79 205 102 250 q 75 183 75 197 l 75 158 q 79 136 75 144 q 143 69 102 91 q 168 63 152 63 l 284 63 q 304 68 295 63 m 358 745 l 279 720 l 104 909 l 206 909 l 358 745 "},"Ü":{"x_min":40.28125,"x_max":593.109375,"ha":743,"o":"m 593 179 q 576 112 593 138 q 531 61 563 94 q 481 16 500 27 q 411 -5 447 -5 l 225 -5 q 152 16 187 -5 q 102 61 134 27 q 58 112 70 94 q 40 179 40 140 l 40 833 l 122 833 l 122 181 q 127 163 122 175 q 168 113 140 140 q 213 77 195 86 q 231 73 219 73 l 404 73 q 422 77 416 73 q 466 113 438 86 q 506 163 494 140 q 512 181 512 175 l 512 833 l 593 833 l 593 179 m 462 928 l 376 928 l 376 1017 l 462 1017 l 462 928 m 259 928 l 173 928 l 173 1017 l 259 1017 l 259 928 "},"ó":{"x_min":20.828125,"x_max":495.875,"ha":649,"o":"m 495 159 q 476 86 495 115 q 413 19 443 40 q 327 -6 379 -6 l 188 -6 q 102 19 137 -6 q 40 86 73 40 q 20 159 20 115 l 20 437 q 40 511 20 481 q 102 577 73 556 q 188 604 137 604 l 327 604 q 413 577 379 604 q 476 511 443 556 q 495 437 495 481 l 495 159 m 420 162 l 420 434 q 418 458 420 452 q 351 526 394 501 q 326 531 341 531 l 190 531 q 165 526 175 531 q 98 458 122 501 q 94 434 94 450 l 94 162 q 98 138 94 147 q 165 70 122 95 q 190 65 175 65 l 326 65 q 351 70 341 65 q 418 138 394 95 q 420 162 420 144 m 398 909 l 223 720 l 144 745 l 295 909 l 398 909 "},"√":{"x_min":0,"x_max":0,"ha":900}}}
